<svg width="42" height="42" viewBox="0 0 42 42" fill="none" xmlns="http://www.w3.org/2000/svg">
<g id="__image">
<g id="Rectangle 1500">
<path id="Vector" d="M34 0H8C3.58172 0 0 3.58172 0 8V34C0 38.4183 3.58172 42 8 42H34C38.4183 42 42 38.4183 42 34V8C42 3.58172 38.4183 0 34 0Z" fill="white"/>
<path id="Vector_2" d="M34 0.75H8C3.99594 0.75 0.75 3.99594 0.75 8V34C0.75 38.0041 3.99594 41.25 8 41.25H34C38.0041 41.25 41.25 38.0041 41.25 34V8C41.25 3.99594 38.0041 0.75 34 0.75Z" stroke="#C1C1C7" stroke-width="1.5" stroke-linecap="round" stroke-dasharray="4 4"/>
</g>
<g id="Paper-Plus">
<g id="Group 5618">
<path id="Path 824" d="M27.459 20.998H14.541" stroke="#C1C1C7" stroke-width="1.5" stroke-linecap="round" stroke-linejoin="round"/>
<path id="Path 825" d="M21 27.459V14.541" stroke="#C1C1C7" stroke-width="1.5" stroke-linecap="round" stroke-linejoin="round"/>
</g>
</g>
</g>
</svg>
