<svg width="8" height="13" viewBox="0 0 8 13" fill="none" xmlns="http://www.w3.org/2000/svg">
<g id="Arrow---Right-2">
<g id="Group 5763">
<path id="Path 870" d="M0.804373 12.702C0.6974 12.5984 0.632119 12.4591 0.620878 12.3106C0.609638 12.1621 0.653217 12.0146 0.743373 11.896L0.803373 11.827L5.85937 6.871L0.804373 1.916C0.6974 1.81236 0.632119 1.6731 0.620878 1.52458C0.609638 1.37606 0.653217 1.22857 0.743373 1.11L0.803373 1.041C0.911366 0.935773 1.05305 0.872051 1.20343 0.861074C1.35381 0.850097 1.50324 0.89257 1.62537 0.981003L1.69637 1.041L7.19637 6.434C7.30315 6.53776 7.3683 6.67699 7.37953 6.82545C7.39077 6.97391 7.34732 7.12136 7.25737 7.24L7.19737 7.309L1.69737 12.702C1.578 12.8186 1.41775 12.8839 1.25087 12.8839C1.084 12.8839 0.923749 12.8186 0.804373 12.702Z" fill="#C1C1C7"/>
</g>
</g>
</svg>
