<svg width="27" height="27" viewBox="0 0 27 27" fill="none" xmlns="http://www.w3.org/2000/svg">
<g id="add">
<g clip-path="url(#clip0_13476_73761)">
<path id="Vector" d="M20.25 14.625H14.625V20.25C14.625 20.8687 14.1187 21.375 13.5 21.375C12.8812 21.375 12.375 20.8687 12.375 20.25V14.625H6.75C6.13125 14.625 5.625 14.1187 5.625 13.5C5.625 12.8812 6.13125 12.375 6.75 12.375H12.375V6.75C12.375 6.13125 12.8812 5.625 13.5 5.625C14.1187 5.625 14.625 6.13125 14.625 6.75V12.375H20.25C20.8687 12.375 21.375 12.8812 21.375 13.5C21.375 14.1187 20.8687 14.625 20.25 14.625Z" fill="white"/>
</g>
</g>
<defs>
<clipPath id="clip0_13476_73761">
<rect width="27" height="27" rx="8" fill="white"/>
</clipPath>
</defs>
</svg>
