<svg width="24" height="24" viewBox="0 0 24 24" fill="none" xmlns="http://www.w3.org/2000/svg">
<g id="bxs:building-house">
<path id="Vector" d="M18.9918 2H9.01076C7.89976 2 7.00076 2.899 7.00076 4.01V9.647L2.29876 14.289C2.15788 14.4283 2.06156 14.6064 2.02204 14.8006C1.98252 14.9947 2.00158 15.1963 2.07679 15.3796C2.15201 15.5629 2.27999 15.7197 2.44449 15.8302C2.609 15.9407 2.80261 15.9998 3.00076 16V21C3.00076 21.2652 3.10612 21.5196 3.29366 21.7071C3.48119 21.8946 3.73555 22 4.00076 22H20.0008C20.266 22 20.5203 21.8946 20.7079 21.7071C20.8954 21.5196 21.0008 21.2652 21.0008 21V4.009C21.0008 2.899 20.1028 2 18.9918 2ZM10.9228 15.111V20H5.00076V14.432L7.98776 11.483L10.9228 14.486V15.111ZM13.0008 9H11.0008V7H13.0008V9ZM17.0008 17H15.0008V15H17.0008V17ZM17.0008 13H15.0008V11H17.0008V13ZM17.0008 9H15.0008V7H17.0008V9Z" fill="white"/>
<path id="Vector_2" d="M7 15H9V17H7V15Z" fill="white"/>
</g>
</svg>
