<svg width="24" height="24" viewBox="0 0 24 24" fill="none" xmlns="http://www.w3.org/2000/svg">
<g id="Frame 8395">
<g id="Group 7587">
<g id="Iconly-Bold-Notification">
<g id="Group 5843">
<g id="Notification">
<path id="Notification_2" d="M10.9894 21.967C10.3638 21.8765 9.77289 21.6238 9.27536 21.234C9.07689 21.1049 8.91061 20.932 8.78928 20.7287C8.66794 20.5254 8.59477 20.297 8.57536 20.061C8.57536 19.561 9.03736 19.327 9.46436 19.228C10.811 19.1227 12.1638 19.1227 13.5104 19.228C13.9374 19.328 14.3994 19.557 14.3994 20.061C14.3805 20.2967 14.3081 20.525 14.1877 20.7284C14.0672 20.9319 13.9019 21.1051 13.7044 21.235C13.2066 21.6237 12.6163 21.8759 11.9914 21.967C11.8239 21.9886 11.6552 21.9997 11.4864 22C11.3191 22.0004 11.1521 21.9894 10.9864 21.967H10.9894ZM6.77036 17.747C5.66319 17.6474 4.63118 17.1445 3.87036 16.334C3.30532 15.6713 2.99852 14.8269 3.00636 13.956C2.95504 13.122 3.21558 12.2987 3.73736 11.646C4.10077 11.2702 4.38275 10.8236 4.56565 10.3339C4.74856 9.84415 4.82846 9.32199 4.80036 8.8V8.37C4.73206 6.96902 5.18964 5.59306 6.08336 4.512C6.74437 3.72852 7.56777 3.09808 8.49656 2.66434C9.42534 2.23059 10.4373 2.00392 11.4624 2H11.5524C12.6016 2.00242 13.6369 2.23929 14.5828 2.69328C15.5287 3.14728 16.3612 3.80693 17.0194 4.624C17.8636 5.68411 18.2905 7.01666 18.2194 8.37V8.8C18.196 9.32187 18.2779 9.8431 18.4604 10.3326C18.6429 10.8221 18.9221 11.2698 19.2814 11.649C19.8006 12.3016 20.059 13.1237 20.0064 13.956C20.0148 14.8271 19.7083 15.6719 19.1434 16.335C18.3823 17.1452 17.3504 17.648 16.2434 17.748C14.6724 17.881 13.0994 17.995 11.5064 17.995C9.92427 18.0023 8.34305 17.9195 6.77036 17.747Z" fill="white"/>
</g>
</g>
</g>
</g>
</g>
</svg>
