<svg width="56" height="56" viewBox="0 0 56 56" fill="none" xmlns="http://www.w3.org/2000/svg">
<g id="bar-chart 1" clip-path="url(#clip0_13186_56259)">
<g id="chart statistic rise up">
<path id="Vector" d="M40.833 1.16699H50.1663V54.8337H40.833V1.16699Z" fill="#6FABE6"/>
<path id="Vector_2" d="M50.167 1.16699C50.167 52.8387 50.0503 51.3337 50.167 51.3337C48.3105 51.3337 46.53 50.5962 45.2172 49.2834C43.9045 47.9707 43.167 46.1902 43.167 44.3337V1.16699H50.167Z" fill="#82BCF4"/>
<path id="Vector_3" d="M8.16699 29.167H17.5003V54.8337H8.16699V29.167Z" fill="#6FABE6"/>
<path id="Vector_4" d="M17.5 29.167C17.5 52.2087 17.3833 51.3337 17.5 51.3337C15.6435 51.3337 13.863 50.5962 12.5503 49.2834C11.2375 47.9707 10.5 46.1902 10.5 44.3337V29.167H17.5Z" fill="#82BCF4"/>
<path id="Vector_5" d="M24.5 17.5H33.8333V54.8333H24.5V17.5Z" fill="#6FABE6"/>
<path id="Vector_6" d="M33.833 17.5C33.833 52.7333 33.7163 51.3333 33.833 51.3333C31.9765 51.3333 30.196 50.5958 28.8833 49.2831C27.5705 47.9703 26.833 46.1898 26.833 44.3333V17.5H33.833Z" fill="#82BCF4"/>
<path id="Vector_7" d="M54.8333 56H1.16667C0.857247 56 0.560501 55.8771 0.341709 55.6583C0.122916 55.4395 0 55.1427 0 54.8333V1.16667C0 0.857247 0.122916 0.560501 0.341709 0.341709C0.560501 0.122916 0.857247 0 1.16667 0C1.47609 0 1.77283 0.122916 1.99162 0.341709C2.21042 0.560501 2.33333 0.857247 2.33333 1.16667V53.6667H54.8333C55.1427 53.6667 55.4395 53.7896 55.6583 54.0084C55.8771 54.2272 56 54.5239 56 54.8333C56 55.1427 55.8771 55.4395 55.6583 55.6583C55.4395 55.8771 55.1427 56 54.8333 56Z" fill="#425B72"/>
<g id="Group">
<path id="Vector_8" d="M28.0007 5.83333V2.33333H24.5007C24.1912 2.33333 23.8945 2.21042 23.6757 1.99162C23.4569 1.77283 23.334 1.47609 23.334 1.16667C23.334 0.857247 23.4569 0.560501 23.6757 0.341709C23.8945 0.122916 24.1912 0 24.5007 0L29.1673 0C29.4767 0 29.7735 0.122916 29.9923 0.341709C30.2111 0.560501 30.334 0.857247 30.334 1.16667V5.83333C30.334 6.14275 30.2111 6.4395 29.9923 6.65829C29.7735 6.87708 29.4767 7 29.1673 7C28.8579 7 28.5612 6.87708 28.3424 6.65829C28.1236 6.4395 28.0007 6.14275 28.0007 5.83333Z" fill="#84B749"/>
<path id="Vector_9" d="M12.8336 18.6666C12.6019 18.6679 12.375 18.6002 12.1819 18.4721C11.9888 18.344 11.8382 18.1613 11.7493 17.9473C11.6605 17.7333 11.6374 17.4976 11.6829 17.2704C11.7285 17.0432 11.8407 16.8347 12.0053 16.6716L28.3386 0.338224C28.5583 0.118536 28.8563 -0.00488281 29.1669 -0.00488281C29.4776 -0.00488281 29.7756 0.118536 29.9953 0.338224C30.215 0.557912 30.3384 0.855872 30.3384 1.16656C30.3384 1.47724 30.215 1.7752 29.9953 1.99489C12.1453 19.8332 13.5219 18.6666 12.8336 18.6666Z" fill="#84B749"/>
</g>
</g>
</g>
<defs>
<clipPath id="clip0_13186_56259">
<rect width="56" height="56" fill="white"/>
</clipPath>
</defs>
</svg>
