<svg width="24" height="24" viewBox="0 0 24 24" fill="none" xmlns="http://www.w3.org/2000/svg">
<g id="Bag">
<g id="Iconly/Light-Outline/Bag">
<g id="Bag_2">
<path id="Combined-Shape" fill-rule="evenodd" clip-rule="evenodd" d="M11.7808 2C14.3947 2 16.554 3.99166 16.8202 6.53892L16.8945 6.5398C18.3445 6.5398 20.1075 7.5028 20.7025 10.2038L21.4915 16.3108C21.7745 18.2818 21.4205 19.8628 20.4375 20.9968C19.4595 22.1248 17.9115 22.7218 15.9605 22.7218H7.61253C5.46953 22.7218 3.97653 22.1968 3.04753 21.1178C2.11453 20.0358 1.80253 18.4128 2.12053 16.2948L2.89653 10.2688C3.40653 7.5058 5.27153 6.5398 6.71553 6.5398C6.84019 5.39028 7.35853 4.2967 8.18083 3.477C9.12583 2.538 10.4288 2 11.7598 2H11.7808ZM16.8945 8.0398H6.71553C6.27453 8.0398 4.80053 8.2178 4.37753 10.5018L3.60553 16.5018C3.35453 18.1848 3.54853 19.4028 4.18353 20.1398C4.81053 20.8678 5.93253 21.2218 7.61253 21.2218H15.9605C17.0085 21.2218 18.4395 21.0128 19.3035 20.0148C19.9895 19.2238 20.2255 18.0458 20.0055 16.5128L19.2265 10.4608C18.8945 8.9698 18.0185 8.0398 16.8945 8.0398ZM14.6973 10.8239C15.1113 10.8239 15.4703 11.1599 15.4703 11.5739C15.4703 11.9879 15.1573 12.3239 14.7433 12.3239H14.6973C14.2833 12.3239 13.9473 11.9879 13.9473 11.5739C13.9473 11.1599 14.2833 10.8239 14.6973 10.8239ZM8.86723 10.8239C9.28123 10.8239 9.64023 11.1599 9.64023 11.5739C9.64023 11.9879 9.32623 12.3239 8.91223 12.3239H8.86723C8.45323 12.3239 8.11723 11.9879 8.11723 11.5739C8.11723 11.1599 8.45323 10.8239 8.86723 10.8239ZM11.7778 3.5H11.7628C10.8218 3.5 9.90483 3.879 9.23983 4.54C8.69813 5.07927 8.34385 5.7882 8.22924 6.53933L15.3085 6.53961C15.0516 4.82138 13.5657 3.5 11.7778 3.5Z" fill="#48484A"/>
</g>
</g>
</g>
</svg>
