<svg width="12" height="14" viewBox="0 0 12 14" fill="none" xmlns="http://www.w3.org/2000/svg">
<g id="Calendar">
<g id="Group 5661">
<path id="Path 860" fill-rule="evenodd" clip-rule="evenodd" d="M8.49992 1.04887C8.48494 0.938762 8.42867 0.838463 8.3425 0.768293C8.25634 0.698123 8.14672 0.663328 8.03586 0.670956C7.925 0.678584 7.82118 0.728065 7.74543 0.809376C7.66969 0.890686 7.62768 0.997747 7.62792 1.10887V1.59687H3.78592V1.10987V1.04987C3.77094 0.939762 3.71467 0.839463 3.6285 0.769293C3.54234 0.699123 3.43272 0.664328 3.32186 0.671956C3.21099 0.679584 3.10718 0.729065 3.03143 0.810376C2.95569 0.891686 2.91368 0.998747 2.91392 1.10987V1.60987C2.51093 1.61058 2.11245 1.69475 1.7436 1.85709C1.37475 2.01942 1.04352 2.2564 0.770791 2.55308C0.498061 2.84977 0.289742 3.19973 0.158962 3.58092C0.0281829 3.9621 -0.022222 4.36624 0.0109241 4.76787V10.0929C-0.0262313 10.5256 0.031659 10.9613 0.180541 11.3693C0.329424 11.7773 0.565699 12.1478 0.872822 12.455C1.17995 12.7621 1.55049 12.9984 1.95852 13.1473C2.36654 13.2961 2.80218 13.354 3.23492 13.3169H8.17392C8.60348 13.3572 9.03665 13.303 9.44305 13.1582C9.84945 13.0133 10.2192 12.7813 10.5264 12.4784C10.8337 12.1754 11.0709 11.809 11.2214 11.4046C11.372 11.0003 11.4322 10.5679 11.3979 10.1379V4.76787C11.4328 4.36652 11.384 3.96229 11.2544 3.58082C11.1249 3.19934 10.9175 2.84895 10.6454 2.55185C10.3733 2.25474 10.0425 2.01742 9.67382 1.85492C9.30518 1.69242 8.90679 1.60829 8.50392 1.60787V1.10787V1.04787L8.49992 1.04887ZM7.62792 2.47887V3.04487V3.10487C7.64291 3.21498 7.69918 3.31528 7.78535 3.38545C7.87151 3.45562 7.98113 3.49041 8.09199 3.48279C8.20285 3.47516 8.30667 3.42568 8.38241 3.34437C8.45816 3.26306 8.50016 3.15599 8.49992 3.04487V2.49287C8.78758 2.49236 9.07207 2.55294 9.33457 2.67059C9.59707 2.78824 9.8316 2.96028 10.0226 3.17534C10.2137 3.39039 10.3569 3.64356 10.4428 3.9181C10.5287 4.19263 10.5553 4.48228 10.5209 4.76787V5.02387H0.886924V4.76787C0.854116 4.48237 0.881971 4.19315 0.968665 3.91916C1.05536 3.64517 1.19894 3.39257 1.39001 3.1779C1.58107 2.96324 1.81532 2.79134 2.07741 2.67346C2.33951 2.55558 2.62354 2.49439 2.91092 2.49387V3.04587V3.10587C2.92591 3.21598 2.98218 3.31628 3.06835 3.38645C3.15451 3.45662 3.26413 3.49141 3.37499 3.48379C3.48585 3.47616 3.58967 3.42668 3.66542 3.34537C3.74116 3.26406 3.78316 3.15699 3.78292 3.04587V2.47987H7.62392L7.62792 2.47887ZM0.886924 5.90787V10.0959C0.850279 10.4128 0.885865 10.7339 0.991013 11.035C1.09616 11.3362 1.26814 11.6097 1.49405 11.8349C1.71997 12.0602 1.99395 12.2313 2.29544 12.3356C2.59694 12.4398 2.91813 12.4745 3.23492 12.4369H8.17392C8.4878 12.4778 8.80687 12.447 9.10707 12.3466C9.40726 12.2462 9.68074 12.079 9.90686 11.8575C10.133 11.636 10.3058 11.366 10.4124 11.0679C10.5189 10.7699 10.5564 10.4515 10.5219 10.1369V5.90787H0.886924ZM8.74092 7.76787C8.74119 7.65135 8.69522 7.53948 8.61311 7.4568C8.531 7.37413 8.41945 7.3274 8.30292 7.32687H8.23792C8.12782 7.34357 8.02808 7.40122 7.95864 7.48828C7.88921 7.57535 7.8552 7.68541 7.86341 7.79647C7.87162 7.90753 7.92145 8.01139 8.00294 8.0873C8.08443 8.1632 8.19156 8.20555 8.30292 8.20587H8.36292C8.46823 8.19088 8.56454 8.13826 8.63404 8.05773C8.70353 7.97721 8.7415 7.87424 8.74092 7.76787ZM5.71092 7.32287C5.82181 7.32461 5.928 7.36797 6.00841 7.44436C6.08881 7.52074 6.13757 7.62456 6.145 7.73522C6.15242 7.84587 6.11798 7.95527 6.0485 8.04172C5.97902 8.12816 5.87959 8.18533 5.76992 8.20187H5.71092C5.59956 8.20155 5.49243 8.1592 5.41094 8.0833C5.32945 8.00739 5.27962 7.90353 5.27141 7.79247C5.2632 7.68141 5.29721 7.57134 5.36664 7.48428C5.43608 7.39722 5.53582 7.33957 5.64592 7.32287H5.71092ZM3.55292 7.76787C3.55359 7.7095 3.54263 7.65158 3.52069 7.59749C3.49875 7.5434 3.46627 7.49421 3.42513 7.45279C3.38399 7.41138 3.33503 7.37856 3.28108 7.35626C3.22714 7.33395 3.1693 7.3226 3.11092 7.32287H3.04592C2.93626 7.33941 2.83682 7.39658 2.76735 7.48302C2.69787 7.56947 2.66342 7.67887 2.67085 7.78953C2.67828 7.90018 2.72703 8.004 2.80744 8.08038C2.88785 8.15677 2.99403 8.20013 3.10492 8.20187H3.16992C3.27546 8.18809 3.37241 8.13652 3.44284 8.05672C3.51326 7.97692 3.55237 7.8743 3.55292 7.76787ZM8.30292 9.61387C8.41381 9.61561 8.52 9.65897 8.60041 9.73536C8.68081 9.81174 8.72957 9.91556 8.737 10.0262C8.74442 10.1369 8.70998 10.2463 8.6405 10.3327C8.57102 10.4192 8.47159 10.4763 8.36192 10.4929H8.30292C8.19156 10.4925 8.08443 10.4502 8.00294 10.3743C7.92145 10.2984 7.87162 10.1945 7.86341 10.0835C7.8552 9.97241 7.88921 9.86234 7.95864 9.77528C8.02808 9.68822 8.12782 9.63057 8.23792 9.61387H8.30292ZM6.14992 10.0559C6.15019 9.99809 6.13907 9.94082 6.1172 9.88734C6.09533 9.83385 6.06314 9.7852 6.02247 9.74416C5.98179 9.70311 5.93344 9.67048 5.88015 9.64813C5.82687 9.62577 5.76971 9.61413 5.71192 9.61387H5.64692C5.53682 9.63057 5.43708 9.68822 5.36764 9.77528C5.29821 9.86234 5.2642 9.97241 5.27241 10.0835C5.28062 10.1945 5.33045 10.2984 5.41194 10.3743C5.49343 10.4502 5.60056 10.4925 5.71192 10.4929H5.77192C5.87775 10.4778 5.97447 10.4248 6.04403 10.3436C6.11359 10.2624 6.15123 10.1587 6.14992 10.0519V10.0559ZM3.11092 9.60987C3.22181 9.61161 3.328 9.65497 3.40841 9.73136C3.48881 9.80774 3.53757 9.91156 3.545 10.0222C3.55242 10.1329 3.51798 10.2423 3.4485 10.3287C3.37902 10.4152 3.27959 10.4723 3.16992 10.4889H3.10492C2.99403 10.4871 2.88785 10.4438 2.80744 10.3674C2.72703 10.291 2.67828 10.1872 2.67085 10.0765C2.66342 9.96587 2.69787 9.85647 2.76735 9.77002C2.83682 9.68358 2.93626 9.62642 3.04592 9.60987H3.11092Z" fill="#274CAC"/>
</g>
</g>
</svg>
