<svg width="56" height="56" viewBox="0 0 56 56" fill="none" xmlns="http://www.w3.org/2000/svg">
<g id="mortgage 1">
<g id="mortgage">
<path id="Vector" d="M1.16699 31.5H8.16699V51.3333H1.16699V31.5Z" fill="#6FABE6"/>
<path id="Vector_2" d="M8.16667 31.5C8.16667 49.875 8.05 49 8.16667 49C6.92899 49 5.742 48.5083 4.86683 47.6332C3.99167 46.758 3.5 45.571 3.5 44.3333V31.5H8.16667Z" fill="#82BCF4"/>
<path id="Vector_3" d="M54.8337 40.8338C54.8339 41.4777 54.6565 42.1092 54.321 42.6588C53.9855 43.2084 53.5048 43.6548 52.932 43.9488C32.3637 54.4605 32.7953 54.8338 28.1987 54.8338C24.862 54.8338 23.532 53.8655 14.1987 49.6305C12.4837 48.8372 11.2937 49.0005 8.16699 49.0005V33.8338C19.2853 32.4455 15.7387 31.8855 32.9937 39.9938C33.5431 40.2536 34.0154 40.652 34.3642 41.1497C34.7129 41.6475 34.926 42.2275 34.9825 42.8326C35.039 43.4377 34.937 44.0471 34.6865 44.6008C34.4359 45.1546 34.0455 45.6335 33.5537 45.9905L49.7353 37.7188C50.269 37.4449 50.8641 37.3127 51.4635 37.335C52.0629 37.3572 52.6466 37.5332 53.1585 37.8459C53.6703 38.1587 54.0932 38.5977 54.3866 39.1209C54.6799 39.6442 54.8339 40.234 54.8337 40.8338Z" fill="#F6CCAF"/>
<path id="Vector_4" d="M54.6233 39.6669C54.005 41.4752 54.25 40.9385 34.1483 51.2169C32.3096 52.1527 30.2593 52.5949 28.1983 52.5002C24.8617 52.5002 23.5317 51.5319 14.1983 47.2969C13.4031 46.9252 12.5433 46.7112 11.6667 46.6669C11.3572 46.6669 11.0605 46.5439 10.8417 46.3251C10.6229 46.1064 10.5 45.8096 10.5 45.5002V33.5419C18.865 32.5035 16.4967 32.2469 32.9933 39.9935C33.453 40.212 33.8594 40.528 34.1844 40.9196C34.5094 41.3112 34.7451 41.769 34.875 42.261C35.005 42.753 35.026 43.2674 34.9368 43.7684C34.8476 44.2694 34.6502 44.745 34.3583 45.1619C33.8333 45.9902 32.7483 46.4102 34.5917 45.4535C50.7967 37.1819 49.7583 37.6719 50.1667 37.5435C51.0393 37.2367 51.998 37.2878 52.8331 37.6856C53.6682 38.0835 54.3119 38.7958 54.6233 39.6669Z" fill="#FFDEC7"/>
<path id="Vector_5" d="M29.5058 47.3782L20.3008 43.0499C20.0443 42.904 19.8527 42.6665 19.7644 42.385C19.6761 42.1035 19.6977 41.799 19.8249 41.5329C19.9521 41.2667 20.1754 41.0586 20.4498 40.9504C20.7243 40.8422 21.0295 40.842 21.3041 40.9499L30.5091 45.2782C32.4808 46.1999 33.1808 43.9832 34.3591 45.1616C33.8341 45.9899 32.7491 46.4099 34.5924 45.4532C35.5024 47.2266 31.8041 48.4866 29.5058 47.3782Z" fill="#EDB996"/>
<path id="Vector_6" d="M50.1667 22.645C50.1667 39.3517 50.3533 37.415 49.735 37.7183L33.5533 45.99C34.0452 45.633 34.4356 45.1541 34.6861 44.6004C34.9367 44.0466 35.0387 43.4372 34.9822 42.8321C34.9257 42.227 34.7126 41.647 34.3638 41.1492C34.0151 40.6515 33.5428 40.2531 32.9933 39.9933C19.6 33.705 19.565 33.53 17.5 33.18V22.68L33.8333 6.34668L50.1667 22.645Z" fill="#DAD7E5"/>
<path id="Vector_7" d="M50.1665 22.6452V35.1285C49.1282 35.3152 48.8715 35.5368 37.1115 41.5569C36.8827 40.7567 36.4853 40.0148 35.946 39.3809C35.4067 38.7471 34.738 38.2359 33.9849 37.8819C20.6032 31.5935 21.2332 31.8735 20.6149 31.6285C19.5882 31.2319 19.8332 31.1618 19.8332 22.6452L34.9999 7.47852L50.1665 22.6452Z" fill="#EDEBF2"/>
<path id="Vector_8" d="M50.8553 23.3335L33.8337 6.32351L16.812 23.3335C16.3656 23.7158 15.7915 23.9155 15.2042 23.8928C14.617 23.8702 14.0599 23.6267 13.6444 23.2112C13.2288 22.7956 12.9854 22.2385 12.9627 21.6513C12.94 21.0641 13.1397 20.4899 13.522 20.0435L31.3603 2.19351C32.0166 1.53807 32.9062 1.16992 33.8337 1.16992C34.7612 1.16992 35.6508 1.53807 36.307 2.19351C55.3703 21.2685 54.3087 20.1602 54.507 20.5218C54.7724 21.0096 54.8552 21.576 54.7405 22.1193C54.6257 22.6626 54.321 23.1472 53.881 23.486C53.441 23.8248 52.8947 23.9955 52.3401 23.9676C51.7855 23.9396 51.259 23.7148 50.8553 23.3335Z" fill="#DB5669"/>
<path id="Vector_9" d="M54.5068 20.5218C54.3269 20.8281 54.0795 21.0893 53.7833 21.2855C53.4872 21.4816 53.1501 21.6076 52.7979 21.6537C52.4457 21.6998 52.0876 21.6649 51.7509 21.5517C51.4143 21.4384 51.1079 21.2498 50.8552 21.0002L33.8335 3.99018L16.8118 21.0002C16.5591 21.2498 16.2527 21.4384 15.916 21.5517C15.5794 21.6649 15.2213 21.6998 14.8691 21.6537C14.5168 21.6076 14.1798 21.4816 13.8837 21.2855C13.5875 21.0893 13.3401 20.8281 13.1602 20.5218C13.3585 20.1602 12.2735 21.2918 31.3602 2.19351C32.0164 1.53807 32.906 1.16992 33.8335 1.16992C34.761 1.16992 35.6506 1.53807 36.3068 2.19351C55.3702 21.2685 54.3085 20.1602 54.5068 20.5218Z" fill="#F26674"/>
<g id="Group">
<path id="Vector_10" d="M28.0006 32.6669C27.7689 32.6682 27.542 32.6005 27.3489 32.4724C27.1558 32.3443 27.0052 32.1616 26.9163 31.9476C26.8275 31.7336 26.8044 31.498 26.8499 31.2708C26.8955 31.0436 27.0077 30.8351 27.1723 30.6719L38.8389 19.0052C39.0586 18.7855 39.3566 18.6621 39.6673 18.6621C39.978 18.6621 40.2759 18.7855 40.4956 19.0052C40.7153 19.2249 40.8387 19.5229 40.8387 19.8335C40.8387 20.1442 40.7153 20.4422 40.4956 20.6619C27.8606 33.2852 28.7006 32.6669 28.0006 32.6669Z" fill="#FFDE76"/>
<path id="Vector_11" d="M30.334 24.5C31.0262 24.5 31.7029 24.2947 32.2785 23.9101C32.8541 23.5256 33.3027 22.9789 33.5676 22.3394C33.8325 21.6999 33.9018 20.9961 33.7667 20.3172C33.6317 19.6383 33.2983 19.0146 32.8089 18.5251C32.3194 18.0356 31.6957 17.7023 31.0168 17.5673C30.3379 17.4322 29.6341 17.5015 28.9946 17.7664C28.3551 18.0313 27.8084 18.4799 27.4238 19.0555C27.0393 19.6311 26.834 20.3078 26.834 21C26.834 21.9283 27.2027 22.8185 27.8591 23.4749C28.5155 24.1313 29.4057 24.5 30.334 24.5ZM30.334 19.8333C30.6434 19.8333 30.9402 19.9563 31.1589 20.175C31.3777 20.3938 31.5007 20.6906 31.5007 21C31.5007 21.3094 31.3777 21.6062 31.1589 21.825C30.9402 22.0438 30.6434 22.1667 30.334 22.1667C30.0246 22.1667 29.7278 22.0438 29.509 21.825C29.2902 21.6062 29.1673 21.3094 29.1673 21C29.1673 20.6906 29.2902 20.3938 29.509 20.175C29.7278 19.9563 30.0246 19.8333 30.334 19.8333Z" fill="#FFDE76"/>
<path id="Vector_12" d="M37.334 26.833C36.6418 26.833 35.9651 27.0383 35.3895 27.4229C34.8139 27.8074 34.3653 28.3541 34.1004 28.9936C33.8355 29.6332 33.7662 30.3369 33.9012 31.0158C34.0363 31.6948 34.3696 32.3184 34.8591 32.8079C35.3486 33.2974 35.9722 33.6307 36.6512 33.7658C37.3301 33.9008 38.0338 33.8315 38.6734 33.5666C39.3129 33.3017 39.8595 32.8531 40.2441 32.2775C40.6287 31.7019 40.834 31.0252 40.834 30.333C40.834 29.4048 40.4652 28.5145 39.8089 27.8581C39.1525 27.2018 38.2622 26.833 37.334 26.833ZM37.334 31.4997C37.0246 31.4997 36.7278 31.3768 36.509 31.158C36.2902 30.9392 36.1673 30.6424 36.1673 30.333C36.1673 30.0236 36.2902 29.7268 36.509 29.508C36.7278 29.2893 37.0246 29.1663 37.334 29.1663C37.6434 29.1663 37.9402 29.2893 38.1589 29.508C38.3777 29.7268 38.5007 30.0236 38.5007 30.333C38.5007 30.6424 38.3777 30.9392 38.1589 31.158C37.9402 31.3768 37.6434 31.4997 37.334 31.4997Z" fill="#FFDE76"/>
</g>
</g>
</g>
</svg>
