<svg width="56" height="56" viewBox="0 0 56 56" fill="none" xmlns="http://www.w3.org/2000/svg">
<g id="new 1">
<g id="new (splash tag)">
<path id="Vector" d="M53.5849 30.7881C52.9752 31.3277 52.5585 32.0517 52.3985 32.85C52.2384 33.6482 52.3436 34.4769 52.6982 35.2098C52.9265 35.6845 53.052 36.202 53.0667 36.7285C53.0813 37.255 52.9848 37.7787 52.7833 38.2653C52.5818 38.752 52.2799 39.1907 51.8974 39.5527C51.5148 39.9148 51.0602 40.1921 50.5632 40.3665C49.8339 40.618 49.2008 41.0899 48.7515 41.7169C48.3021 42.3439 48.0587 43.0951 48.0549 43.8665V44.3215C48.0542 44.8315 47.9493 45.336 47.7467 45.8041C47.5441 46.2722 47.248 46.6939 46.8766 47.0435C46.5051 47.3931 46.0662 47.6631 45.5868 47.837C45.1073 48.0109 44.5973 48.085 44.0882 48.0548C43.277 48.005 42.4718 48.222 41.7955 48.6729C41.1193 49.1237 40.6092 49.7835 40.3432 50.5515C40.1703 51.0496 39.8939 51.5055 39.5322 51.8891C39.1704 52.2727 38.7315 52.5753 38.2443 52.777C37.7571 52.9787 37.2328 53.0749 36.7057 53.0593C36.1787 53.0437 35.6609 52.9166 35.1865 52.6865C34.4536 52.3319 33.6249 52.2267 32.8267 52.3867C32.0284 52.5468 31.3044 52.9634 30.7649 53.5731C30.4146 53.9665 29.9851 54.2813 29.5045 54.4969C29.024 54.7125 28.5032 54.8239 27.9765 54.8239C27.4498 54.8239 26.9291 54.7125 26.4485 54.4969C25.968 54.2813 25.5384 53.9665 25.1882 53.5731C24.6487 52.9634 23.9246 52.5468 23.1264 52.3867C22.3281 52.2267 21.4994 52.3319 20.7665 52.6865C20.2921 52.9166 19.7744 53.0437 19.2473 53.0593C18.7203 53.0749 18.1959 52.9787 17.7088 52.777C17.2216 52.5753 16.7827 52.2727 16.4209 51.8891C16.0591 51.5055 15.7827 51.0496 15.6099 50.5515C15.3456 49.7824 14.8359 49.1215 14.1592 48.6704C13.4826 48.2193 12.6764 48.003 11.8649 48.0548C11.34 48.0836 10.8149 48.0012 10.3241 47.8131C9.83326 47.625 9.38768 47.3353 9.01652 46.963C8.64537 46.5908 8.35702 46.1444 8.17033 45.653C7.98365 45.1616 7.90284 44.6363 7.9332 44.1115C7.98305 43.3003 7.76598 42.495 7.31515 41.8188C6.86432 41.1425 6.20452 40.6325 5.43653 40.3665C4.93839 40.1936 4.48252 39.9172 4.09893 39.5554C3.71534 39.1937 3.41273 38.7548 3.21103 38.2676C3.00933 37.7804 2.91311 37.256 2.92871 36.729C2.9443 36.202 3.07137 35.6842 3.30153 35.2098C3.65608 34.4769 3.76133 33.6482 3.60126 32.85C3.44119 32.0517 3.02457 31.3277 2.41486 30.7881C2.02148 30.4379 1.70666 30.0084 1.49109 29.5278C1.27551 29.0473 1.16406 28.5265 1.16406 27.9998C1.16406 27.4731 1.27551 26.9524 1.49109 26.4718C1.70666 25.9912 2.02148 25.5617 2.41486 25.2115C3.02457 24.6719 3.44119 23.9479 3.60126 23.1496C3.76133 22.3514 3.65608 21.5227 3.30153 20.7898C3.07137 20.3154 2.9443 19.7977 2.92871 19.2706C2.91311 18.7436 3.00933 18.2192 3.21103 17.732C3.41273 17.2449 3.71534 16.8059 4.09893 16.4442C4.48252 16.0824 4.93839 15.806 5.43653 15.6331C6.20561 15.3688 6.86654 14.8591 7.31764 14.1825C7.76874 13.5058 7.98502 12.6997 7.9332 11.8881C7.90207 11.3696 7.97951 10.8502 8.16057 10.3633C8.34162 9.87636 8.62231 9.43257 8.98468 9.06032C9.34705 8.68807 9.78312 8.39554 10.265 8.20145C10.7469 8.00736 11.264 7.91598 11.7832 7.93314H12.1215C12.8929 7.92934 13.6441 7.68592 14.2711 7.23656C14.8982 6.78719 15.37 6.15408 15.6215 5.42481C15.7959 4.92781 16.0732 4.47319 16.4353 4.09064C16.7973 3.70809 17.236 3.40621 17.7227 3.20472C18.2093 3.00324 18.733 2.90667 19.2595 2.92133C19.786 2.93599 20.3035 3.06155 20.7782 3.28981C21.5111 3.64436 22.3398 3.74961 23.138 3.58954C23.9363 3.42947 24.6603 3.01285 25.1999 2.40314C25.5501 2.00976 25.9796 1.69494 26.4602 1.47937C26.9408 1.26379 27.4615 1.15234 27.9882 1.15234C28.5149 1.15234 29.0356 1.26379 29.5162 1.47937C29.9968 1.69494 30.4263 2.00976 30.7765 2.40314C31.3172 3.01121 32.0412 3.42666 32.8389 3.58664C33.6367 3.74662 34.4649 3.64242 35.1982 3.28981C35.6739 3.05787 36.1934 2.92972 36.7224 2.91385C37.2514 2.89797 37.7777 2.99474 38.2664 3.19774C38.7551 3.40073 39.1951 3.70531 39.5572 4.09128C39.9193 4.47725 40.1951 4.93578 40.3665 5.43648C40.618 6.16575 41.0899 6.79886 41.7169 7.24822C42.344 7.69759 43.0951 7.94101 43.8665 7.94481H44.3215C44.8316 7.9455 45.3361 8.05038 45.8042 8.25299C46.2722 8.45561 46.694 8.7517 47.0435 9.12312C47.3931 9.49453 47.6631 9.93343 47.837 10.4129C48.0109 10.8924 48.0851 11.4023 48.0549 11.9115C48.005 12.7227 48.2221 13.5279 48.6729 14.2042C49.1237 14.8804 49.7835 15.3905 50.5515 15.6565C51.2808 15.908 51.9139 16.3799 52.3633 17.0069C52.8126 17.6339 53.0561 18.3851 53.0599 19.1565C53.0599 20.6615 52.3132 20.9298 52.3132 22.4115C52.3249 25.2931 54.8332 25.1181 54.8332 27.9998C54.8342 28.5264 54.7235 29.0473 54.5083 29.528C54.2931 30.0086 53.9784 30.4382 53.5849 30.7881Z" fill="#DB5669"/>
<path id="Vector_2" d="M53.5844 30.7877C52.9747 31.3272 52.5581 32.0513 52.398 32.8495C52.2379 33.6478 52.3432 34.4765 52.6977 35.2094C53.108 36.0441 53.1831 37.0043 52.9077 37.8927C52.9077 38.0094 52.021 39.386 51.951 39.5027C51.5608 39.8933 51.0857 40.1887 50.5627 40.366C49.8334 40.6175 49.2003 41.0894 48.751 41.7164C48.3016 42.3434 48.0582 43.0946 48.0544 43.866C48.0544 43.866 48.0544 44.0294 48.0544 44.2044C31.8727 59.7094 4.66605 48.2644 4.66605 25.666C4.65542 19.0569 7.20622 12.7009 11.7827 7.93269C12.6108 8.00451 13.4392 7.79792 14.1366 7.34567C14.834 6.89342 15.3605 6.22138 15.6327 5.43602C16.076 4.11769 16.7994 3.81436 18.0944 3.10269C18.4373 2.99186 18.7957 2.93672 19.156 2.93936C20.661 2.93936 20.9294 3.68602 22.411 3.68602C25.2927 3.67436 25.1177 1.16602 27.9994 1.16602C28.526 1.16497 29.0469 1.2757 29.5275 1.4909C30.0082 1.70609 30.4377 2.02084 30.7877 2.41436C31.3284 3.02243 32.0523 3.43788 32.8501 3.59785C33.6479 3.75783 34.4761 3.65363 35.2094 3.30102C35.6838 3.07086 36.2015 2.9438 36.7286 2.9282C37.2556 2.9126 37.78 3.00882 38.2672 3.21052C38.7543 3.41222 39.1933 3.71483 39.555 4.09842C39.9168 4.48201 40.1932 4.93789 40.3661 5.43602C40.6304 6.2051 41.14 6.86604 41.8167 7.31714C42.4933 7.76824 43.2995 7.98451 44.111 7.93269C44.6389 7.9003 45.1675 7.98041 45.6621 8.16771C46.1566 8.35501 46.6057 8.64523 46.9796 9.01915C47.3535 9.39307 47.6437 9.84216 47.831 10.3367C48.0183 10.8312 48.0984 11.3599 48.0661 11.8877C48.0162 12.6989 48.2333 13.5041 48.6841 14.1804C49.1349 14.8566 49.7947 15.3667 50.5627 15.6327C51.0609 15.8055 51.5167 16.082 51.9003 16.4437C52.2839 16.8055 52.5865 17.2444 52.7882 17.7316C52.9899 18.2188 53.0861 18.7431 53.0705 19.2702C53.0549 19.7972 52.9279 20.315 52.6977 20.7894C52.3432 21.5222 52.2379 22.3509 52.398 23.1492C52.5581 23.9474 52.9747 24.6715 53.5844 25.211C53.9778 25.5613 54.2926 25.9908 54.5082 26.4713C54.7237 26.9519 54.8352 27.4727 54.8352 27.9994C54.8352 28.5261 54.7237 29.0468 54.5082 29.5274C54.2926 30.0079 53.9778 30.4374 53.5844 30.7877Z" fill="#F26674"/>
<path id="Vector_3" d="M47.8334 28.0001C47.8334 33.2602 45.7438 38.3049 42.0244 42.0244C38.3049 45.7439 33.2602 47.8334 28.0001 47.8334C9.53174 47.8334 1.16674 24.7451 15.1667 12.8334C27.8484 2.12345 47.8334 10.9201 47.8334 28.0001Z" fill="#C4455E"/>
<path id="Vector_4" d="M47.8329 28.0001C47.8546 32.697 46.1999 37.2476 43.1662 40.8334C39.5803 43.8671 35.0298 45.5219 30.3329 45.5001C13.2762 45.5001 4.44454 25.5268 15.1662 12.8334C27.8479 2.12344 47.8329 10.9201 47.8329 28.0001Z" fill="#DB5669"/>
<g id="Group">
<path id="Vector_5" d="M18.6667 23.3337V27.7203L16.205 22.8087C16.0859 22.5761 15.8922 22.3903 15.6549 22.281C15.4177 22.1717 15.1506 22.1451 14.8964 22.2056C14.6423 22.2661 14.4158 22.4102 14.2533 22.6147C14.0907 22.8193 14.0015 23.0724 14 23.3337V32.667C14 32.9764 14.1229 33.2732 14.3417 33.492C14.5605 33.7107 14.8572 33.8337 15.1667 33.8337C15.4761 33.8337 15.7728 33.7107 15.9916 33.492C16.2104 33.2732 16.3333 32.9764 16.3333 32.667V28.2803L18.795 33.192C18.9141 33.4245 19.1078 33.6103 19.3451 33.7197C19.5823 33.829 19.8494 33.8555 20.1036 33.795C20.3577 33.7345 20.5842 33.5905 20.7467 33.3859C20.9093 33.1814 20.9985 32.9282 21 32.667V23.3337C21 23.0242 20.8771 22.7275 20.6583 22.5087C20.4395 22.2899 20.1428 22.167 19.8333 22.167C19.5239 22.167 19.2272 22.2899 19.0084 22.5087C18.7896 22.7275 18.6667 23.0242 18.6667 23.3337Z" fill="#EDEBF2"/>
<path id="Vector_6" d="M29.1663 24.5003C29.4758 24.5003 29.7725 24.3774 29.9913 24.1586C30.2101 23.9398 30.333 23.6431 30.333 23.3337C30.333 23.0242 30.2101 22.7275 29.9913 22.5087C29.7725 22.2899 29.4758 22.167 29.1663 22.167H24.4997C24.1903 22.167 23.8935 22.2899 23.6747 22.5087C23.4559 22.7275 23.333 23.0242 23.333 23.3337V32.667C23.333 32.9764 23.4559 33.2732 23.6747 33.492C23.8935 33.7107 24.1903 33.8337 24.4997 33.8337H29.1663C29.4758 33.8337 29.7725 33.7107 29.9913 33.492C30.2101 33.2732 30.333 32.9764 30.333 32.667C30.333 32.3576 30.2101 32.0608 29.9913 31.842C29.7725 31.6232 29.4758 31.5003 29.1663 31.5003H25.6663V29.167H29.1663C29.4758 29.167 29.7725 29.0441 29.9913 28.8253C30.2101 28.6065 30.333 28.3097 30.333 28.0003C30.333 27.6909 30.2101 27.3942 29.9913 27.1754C29.7725 26.9566 29.4758 26.8337 29.1663 26.8337H25.6663V24.5003H29.1663Z" fill="#EDEBF2"/>
<path id="Vector_7" d="M39.6668 23.2285L39.0835 29.5518L38.2668 28.4668C38.1582 28.3219 38.0172 28.2043 37.8552 28.1233C37.6932 28.0423 37.5146 28.0002 37.3335 28.0002C37.1524 28.0002 36.9737 28.0423 36.8117 28.1233C36.6497 28.2043 36.5088 28.3219 36.4002 28.4668L35.5835 29.5518L35.0002 23.2285C34.9864 23.0753 34.9425 22.9263 34.8712 22.79C34.7998 22.6538 34.7023 22.5329 34.5842 22.4343C34.4661 22.3357 34.3298 22.2613 34.1829 22.2155C34.0361 22.1696 33.8817 22.153 33.7285 22.1668C33.5753 22.1806 33.4263 22.2244 33.29 22.2958C33.1538 22.3672 33.0329 22.4647 32.9343 22.5828C32.8357 22.7009 32.7613 22.8372 32.7155 22.984C32.6696 23.1309 32.653 23.2853 32.6668 23.4385C33.6118 33.5302 33.3552 33.4952 34.3935 33.7868C35.4318 34.0785 35.5602 33.4252 37.3335 31.1152C39.1068 33.4485 39.2002 33.8335 39.9585 33.8335C40.2505 33.8347 40.5324 33.7263 40.7484 33.5297C40.9644 33.3331 41.0989 33.0627 41.1252 32.7718L42.0002 23.4385C42.028 23.1291 41.9318 22.8213 41.7327 22.5828C41.5336 22.3443 41.2479 22.1947 40.9385 22.1668C40.6291 22.139 40.3213 22.2352 40.0828 22.4343C39.8443 22.6334 39.6947 22.9191 39.6668 23.2285Z" fill="#EDEBF2"/>
</g>
<g id="Group_2">
<path id="Vector_8" d="M37.0653 18.935C34.6594 16.5341 31.3993 15.1857 28.0003 15.1857C24.6014 15.1857 21.3413 16.5341 18.9353 18.935C18.7156 19.1546 18.4177 19.2781 18.107 19.2781C17.7963 19.2781 17.4983 19.1546 17.2787 18.935C17.059 18.7153 16.9355 18.4173 16.9355 18.1066C16.9355 17.7959 17.059 17.498 17.2787 17.2783C20.1227 14.4357 23.9792 12.8389 28.0003 12.8389C32.0214 12.8389 35.8779 14.4357 38.722 17.2783C38.8308 17.3871 38.9171 17.5162 38.9759 17.6583C39.0348 17.8005 39.0651 17.9528 39.0651 18.1066C39.0651 18.2605 39.0348 18.4128 38.9759 18.5549C38.9171 18.697 38.8308 18.8262 38.722 18.935C38.6132 19.0437 38.4841 19.13 38.3419 19.1889C38.1998 19.2478 38.0475 19.2781 37.8937 19.2781C37.7398 19.2781 37.5875 19.2478 37.4454 19.1889C37.3032 19.13 37.1741 19.0437 37.0653 18.935Z" fill="#FFDE76"/>
<path id="Vector_9" d="M17.2787 38.7215C17.059 38.5018 16.9355 38.2038 16.9355 37.8931C16.9355 37.5824 17.059 37.2845 17.2787 37.0648C17.4983 36.8451 17.7963 36.7217 18.107 36.7217C18.4177 36.7217 18.7156 36.8451 18.9353 37.0648C21.3413 39.4657 24.6014 40.8141 28.0003 40.8141C31.3993 40.8141 34.6594 39.4657 37.0653 37.0648C37.285 36.8451 37.583 36.7217 37.8937 36.7217C38.2043 36.7217 38.5023 36.8451 38.722 37.0648C38.9417 37.2845 39.0651 37.5824 39.0651 37.8931C39.0651 38.2038 38.9417 38.5018 38.722 38.7215C35.8779 41.564 32.0214 43.1609 28.0003 43.1609C23.9792 43.1609 20.1227 41.564 17.2787 38.7215Z" fill="#FFDE76"/>
</g>
</g>
</g>
</svg>
