<svg width="24" height="24" viewBox="0 0 24 24" fill="none" xmlns="http://www.w3.org/2000/svg">
<g id="Paper">
<g id="Iconly/Light-Outline/Paper">
<g id="Paper_2">
<path id="Combined-Shape" fill-rule="evenodd" clip-rule="evenodd" d="M13.9756 2C14.0185 2 14.0606 2.00362 14.1016 2.01056L14.2385 2.0114C14.4425 2.0114 14.6375 2.0944 14.7795 2.2414L19.8445 7.5184C19.9785 7.6574 20.0536 7.8444 20.0536 8.0374V17.2034C20.0715 19.7124 18.1175 21.7624 15.6045 21.8644L7.58546 21.8654H7.47646C5.02652 21.81 3.06163 19.8286 3.00177 17.4026L3.00146 6.4904C3.05946 4.0094 5.10846 2.0114 7.57147 2.0114L13.8495 2.01056C13.8905 2.00362 13.9326 2 13.9756 2ZM13.2255 3.511L7.57346 3.5114C5.91646 3.5114 4.54046 4.8534 4.50146 6.5084V17.2034C4.46446 18.9164 5.81446 20.3274 7.51046 20.3654H15.5745C17.2435 20.2964 18.5655 18.9094 18.5535 17.2094L18.5535 8.983L16.5436 8.984C14.7136 8.979 13.2256 7.487 13.2256 5.659L13.2255 3.511ZM13.7888 14.6081C14.2028 14.6081 14.5388 14.9441 14.5388 15.3581C14.5388 15.7721 14.2028 16.1081 13.7888 16.1081H8.38876C7.97476 16.1081 7.63876 15.7721 7.63876 15.3581C7.63876 14.9441 7.97476 14.6081 8.38876 14.6081H13.7888ZM11.7439 10.8561C12.1579 10.8561 12.4939 11.1921 12.4939 11.6061C12.4939 12.0201 12.1579 12.3561 11.7439 12.3561H8.38787C7.97387 12.3561 7.63787 12.0201 7.63787 11.6061C7.63787 11.1921 7.97387 10.8561 8.38787 10.8561H11.7439ZM14.7255 4.352L14.7256 5.659C14.7256 6.663 15.5426 7.481 16.5456 7.484L17.7315 7.483L14.7255 4.352Z" fill="#065986"/>
</g>
</g>
</g>
</svg>
