<svg width="25" height="24" viewBox="0 0 25 24" fill="none" xmlns="http://www.w3.org/2000/svg">
<g id="solar:square-share-line-linear">
<g id="Group">
<path id="Vector" d="M22.5 13.998C22.471 17.412 22.282 19.294 21.04 20.535C19.576 22 17.218 22 12.503 22C7.787 22 5.43 22 3.965 20.535C2.5 19.07 2.5 16.713 2.5 11.997C2.5 7.282 2.5 4.924 3.965 3.46C5.206 2.218 7.088 2.029 10.502 2" stroke="#027A48" stroke-width="1.5" stroke-linecap="round"/>
<path id="Vector_2" d="M22.5 7H14.5C12.682 7 11.587 7.892 11.18 8.3C11.055 8.427 10.992 8.49 10.99 8.49C10.99 8.492 10.927 8.555 10.8 8.68C10.392 9.087 9.5 10.182 9.5 12V15M22.5 7L17.5 2M22.5 7L17.5 12" stroke="#027A48" stroke-width="1.5" stroke-linecap="round" stroke-linejoin="round"/>
</g>
</g>
</svg>
