<svg width="56" height="56" viewBox="0 0 56 56" fill="none" xmlns="http://www.w3.org/2000/svg">
<g id="shopping-cart 1">
<g id="shooping cart">
<path id="Vector" d="M54.8331 17.5005C51.3331 37.6722 51.8931 34.1138 51.3331 37.3338H18.6665L15.9248 15.4238L54.8331 17.5005Z" fill="#DAD7E5"/>
<path id="Vector_2" d="M54.8332 17.5001L51.7416 35.0001H25.1182C23.9753 35.0091 22.8688 34.5983 22.0086 33.8456C21.1485 33.093 20.5944 32.0508 20.4516 30.9168L18.5732 15.5635L54.8332 17.5001Z" fill="#EDEBF2"/>
<path id="Vector_3" d="M51.333 45.5004C16.0997 45.5004 18.1997 45.7454 17.698 44.9754C16.926 43.8084 16.4979 42.4477 16.4628 41.0489C16.4278 39.6501 16.7871 38.2696 17.4997 37.0654L14.268 11.5271C14.2336 11.2425 14.0957 10.9806 13.8805 10.7912C13.6653 10.6019 13.388 10.4984 13.1013 10.5004H10.4997C10.1903 10.5004 9.89351 10.3775 9.67472 10.1587C9.45592 9.93993 9.33301 9.64318 9.33301 9.33376C9.33301 9.02434 9.45592 8.7276 9.67472 8.5088C9.89351 8.29001 10.1903 8.16709 10.4997 8.16709H13.1013C13.9594 8.16055 14.79 8.46946 15.4353 9.03515C16.0806 9.60083 16.4955 10.3839 16.6013 11.2354C20.1013 39.5738 20.008 37.4621 19.658 37.9754C19.1472 38.7337 18.8476 39.6144 18.7902 40.5269C18.7328 41.4394 18.9196 42.3508 19.3313 43.1671H51.333C51.6424 43.1671 51.9392 43.29 52.158 43.5088C52.3768 43.7276 52.4997 44.0243 52.4997 44.3338C52.4997 44.6432 52.3768 44.9399 52.158 45.1587C51.9392 45.3775 51.6424 45.5004 51.333 45.5004Z" fill="#7C7D7D"/>
<g id="Group">
<path id="Vector_4" d="M33.833 31.501V22.1676C33.833 21.8582 33.9559 21.5615 34.1747 21.3427C34.3935 21.1239 34.6903 21.001 34.9997 21.001C35.3091 21.001 35.6058 21.1239 35.8246 21.3427C36.0434 21.5615 36.1663 21.8582 36.1663 22.1676V31.501C36.1663 31.8104 36.0434 32.1071 35.8246 32.3259C35.6058 32.5447 35.3091 32.6676 34.9997 32.6676C34.6903 32.6676 34.3935 32.5447 34.1747 32.3259C33.9559 32.1071 33.833 31.8104 33.833 31.501Z" fill="#C6C3D8"/>
<path id="Vector_5" d="M40.8336 31.3606L42.0002 22.0272C42.0374 21.7178 42.1959 21.4358 42.4409 21.2433C42.686 21.0507 42.9975 20.9634 43.3069 21.0006C43.6163 21.0377 43.8983 21.1962 44.0909 21.4413C44.2834 21.6863 44.3707 21.9978 44.3336 22.3072L43.1669 31.6406C43.1298 31.95 42.9712 32.232 42.7262 32.4245C42.4812 32.6171 42.1697 32.7044 41.8602 32.6672C41.5508 32.6301 41.2688 32.4716 41.0763 32.2265C40.8837 31.9815 40.7964 31.67 40.8336 31.3606Z" fill="#C6C3D8"/>
<path id="Vector_6" d="M26.8332 31.6406L25.6666 22.3072C25.6294 21.9978 25.7168 21.6863 25.9093 21.4413C26.1018 21.1962 26.3838 21.0377 26.6932 21.0006C27.0027 20.9634 27.3142 21.0507 27.5592 21.2433C27.8043 21.4358 27.9628 21.7178 27.9999 22.0272L29.1666 31.3606C29.2037 31.67 29.1164 31.9815 28.9239 32.2265C28.7313 32.4716 28.4493 32.6301 28.1399 32.6672C27.8305 32.7044 27.519 32.6171 27.2739 32.4245C27.0289 32.232 26.8704 31.95 26.8332 31.6406Z" fill="#C6C3D8"/>
</g>
<path id="Vector_7" d="M45.2087 16.9868L36.167 16.5085V10.5002C37.1598 9.75577 38.3641 9.34736 39.605 9.33431C40.8458 9.32125 42.0585 9.70423 43.0667 10.4276C44.075 11.1509 44.8263 12.177 45.2115 13.3566C45.5967 14.5362 45.5957 15.8079 45.2087 16.9868Z" fill="#6FABE6"/>
<path id="Vector_8" d="M45.5002 14.6651L40.7402 14.4085C40.1438 14.3756 39.5828 14.1154 39.1726 13.6813C38.7624 13.2472 38.5343 12.6724 38.5352 12.0751V9.45013C39.3403 9.28772 40.1707 9.29718 40.972 9.4779C41.7732 9.65861 42.5273 10.0065 43.1848 10.4988C43.8423 10.9911 44.3884 11.6167 44.7874 12.3347C45.1864 13.0527 45.4293 13.8468 45.5002 14.6651Z" fill="#82BCF4"/>
<path id="Vector_9" d="M36.1667 4.66699V16.5087L24.5 15.8787V4.66699H36.1667Z" fill="#DB5669"/>
<path id="Vector_10" d="M36.1663 4.66699V14.0003L30.1463 13.6737C29.2508 13.6258 28.4078 13.2361 27.7913 12.5848C27.1748 11.9335 26.8317 11.0705 26.833 10.1737V4.66699H36.1663Z" fill="#F26674"/>
<path id="Vector_11" d="M10.5 8.16706V10.5004C10.5 10.8098 10.3771 11.1066 10.1583 11.3253C9.93954 11.5441 9.64279 11.6671 9.33337 11.6671H3.50004C2.9834 11.6707 2.48017 11.5027 2.06927 11.1895C1.65837 10.8763 1.36303 10.4356 1.22958 9.9365C1.09612 9.43738 1.1321 8.90808 1.33186 8.43161C1.53162 7.95514 1.88387 7.55844 2.33337 7.30373C3.04504 6.89539 2.92837 7.00039 9.33337 7.00039C9.64279 7.00039 9.93954 7.12331 10.1583 7.3421C10.3771 7.56089 10.5 7.85764 10.5 8.16706Z" fill="#374F68"/>
<path id="Vector_12" d="M10.4997 8.16706V9.33373H4.66634C4.09664 9.33856 3.54485 9.13479 3.11503 8.76084C2.68521 8.3869 2.40705 7.86862 2.33301 7.30373C3.04467 6.89539 2.92801 7.00039 9.33301 7.00039C9.64243 7.00039 9.93917 7.12331 10.158 7.3421C10.3768 7.56089 10.4997 7.85764 10.4997 8.16706Z" fill="#425B72"/>
<path id="Vector_13" d="M23.333 47.8337C23.3332 48.4822 23.1533 49.118 22.8133 49.6702C22.4732 50.2224 21.9865 50.6693 21.4073 50.9609C20.8281 51.2526 20.1792 51.3777 19.5331 51.3221C18.887 51.2665 18.269 51.0325 17.7481 50.6463C17.2273 50.26 16.8239 49.7366 16.5832 49.1344C16.3424 48.5323 16.2737 47.8751 16.3846 47.2361C16.4956 46.5972 16.7819 46.0017 17.2115 45.5159C17.6412 45.0302 18.1974 44.6734 18.818 44.4854C19.3409 44.3269 19.8936 44.2931 20.4318 44.3866C20.9701 44.48 21.479 44.6982 21.9179 45.0237C22.3567 45.3491 22.7133 45.7728 22.959 46.2607C23.2047 46.7487 23.3328 47.2874 23.333 47.8337Z" fill="#374F68"/>
<path id="Vector_14" d="M46.667 51.334C48.6 51.334 50.167 49.767 50.167 47.834C50.167 45.901 48.6 44.334 46.667 44.334C44.734 44.334 43.167 45.901 43.167 47.834C43.167 49.767 44.734 51.334 46.667 51.334Z" fill="#374F68"/>
<path id="Vector_15" d="M23.1821 48.8491C22.5759 49.0325 21.9314 49.0479 21.3171 48.8937C20.7028 48.7396 20.1419 48.4217 19.6941 47.9739C19.2463 47.526 18.9283 46.9651 18.7742 46.3508C18.6201 45.7366 18.6355 45.092 18.8188 44.4858C19.425 44.3025 20.0696 44.287 20.6838 44.4412C21.2981 44.5953 21.8591 44.9132 22.3069 45.3611C22.7547 45.8089 23.0726 46.3698 23.2268 46.9841C23.3809 47.5984 23.3655 48.2429 23.1821 48.8491Z" fill="#425B72"/>
<path id="Vector_16" d="M50.0151 48.8491C49.4089 49.0325 48.7644 49.0479 48.1501 48.8937C47.5358 48.7396 46.9749 48.4217 46.5271 47.9739C46.0793 47.526 45.7613 46.9651 45.6072 46.3508C45.4531 45.7366 45.4685 45.092 45.6518 44.4858C46.258 44.3025 46.9026 44.287 47.5169 44.4412C48.1311 44.5953 48.6921 44.9132 49.1399 45.3611C49.5877 45.8089 49.9056 46.3698 50.0598 46.9841C50.2139 47.5984 50.1985 48.2429 50.0151 48.8491Z" fill="#425B72"/>
<path id="Vector_17" d="M19.0052 47.0052C19.2249 46.7855 19.5229 46.6621 19.8335 46.6621C20.1442 46.6621 20.4422 46.7855 20.6619 47.0052C20.8816 47.2249 21.005 47.5229 21.005 47.8336C21.005 48.1442 20.8816 48.4422 20.6619 48.6619C20.4422 48.8816 20.1442 49.005 19.8335 49.005C19.5229 49.005 19.2249 48.8816 19.0052 48.6619C18.7855 48.4422 18.6621 48.1442 18.6621 47.8336C18.6621 47.5229 18.7855 47.2249 19.0052 47.0052Z" fill="#EDEBF2"/>
<path id="Vector_18" d="M45.8382 47.0052C46.0579 46.7855 46.3559 46.6621 46.6666 46.6621C46.9772 46.6621 47.2752 46.7855 47.4949 47.0052C47.7146 47.2249 47.838 47.5229 47.838 47.8336C47.838 48.1442 47.7146 48.4422 47.4949 48.6619C47.2752 48.8816 46.9772 49.005 46.6666 49.005C46.3559 49.005 46.0579 48.8816 45.8382 48.6619C45.6185 48.4422 45.4951 48.1442 45.4951 47.8336C45.4951 47.5229 45.6185 47.2249 45.8382 47.0052Z" fill="#EDEBF2"/>
<path id="Vector_19" d="M19.8337 36.167H50.167C50.4764 36.167 50.7732 36.2899 50.992 36.5087C51.2107 36.7275 51.3337 37.0242 51.3337 37.3337C51.3337 37.6431 51.2107 37.9398 50.992 38.1586C50.7732 38.3774 50.4764 38.5003 50.167 38.5003H19.8337C19.5242 38.5003 19.2275 38.3774 19.0087 38.1586C18.7899 37.9398 18.667 37.6431 18.667 37.3337C18.667 37.0242 18.7899 36.7275 19.0087 36.5087C19.2275 36.2899 19.5242 36.167 19.8337 36.167Z" fill="#7C7D7D"/>
</g>
</g>
</svg>
