<svg width="24" height="24" viewBox="0 0 24 24" fill="none" xmlns="http://www.w3.org/2000/svg">
<g id="solar:cart-plus-linear">
<g id="Group">
<path id="Vector" d="M7.5 18C7.89782 18 8.27936 18.158 8.56066 18.4393C8.84196 18.7206 9 19.1022 9 19.5C9 19.8978 8.84196 20.2794 8.56066 20.5607C8.27936 20.842 7.89782 21 7.5 21C7.10218 21 6.72064 20.842 6.43934 20.5607C6.15804 20.2794 6 19.8978 6 19.5C6 19.1022 6.15804 18.7206 6.43934 18.4393C6.72064 18.158 7.10218 18 7.5 18ZM16.5 18C16.8978 18 17.2794 18.158 17.5607 18.4393C17.842 18.7206 18 19.1022 18 19.5C18 19.8978 17.842 20.2794 17.5607 20.5607C17.2794 20.842 16.8978 21 16.5 21C16.1022 21 15.7206 20.842 15.4393 20.5607C15.158 20.2794 15 19.8978 15 19.5C15 19.1022 15.158 18.7206 15.4393 18.4393C15.7206 18.158 16.1022 18 16.5 18Z" stroke="#027A48" stroke-width="1.5"/>
<path id="Vector_2" d="M2.24853 2.29251C2.06076 2.22647 1.85444 2.23773 1.67497 2.32381C1.4955 2.40989 1.35757 2.56374 1.29153 2.75151C1.22549 2.93928 1.23675 3.1456 1.32283 3.32507C1.40891 3.50454 1.56276 3.64247 1.75053 3.70851L2.24853 2.29251ZM20.6575 9.88351L21.3915 10.0345L21.3925 10.0305L20.6575 9.88351ZM20.7335 6.69851L20.1395 7.15451L20.7345 6.69751L20.7335 6.69851ZM5.70753 9.76051V7.03851H4.20753V9.76051H5.70753ZM2.50953 2.38451L2.24853 2.29251L1.75053 3.70851L2.01153 3.79951L2.50953 2.38451ZM10.9375 16.2505H16.2395V14.7505H10.9375V16.2505ZM5.70753 7.03851C5.70753 6.33151 5.70853 5.74151 5.65753 5.26251C5.60253 4.76551 5.48753 4.31251 5.20553 3.90051L3.96653 4.74651C4.05653 4.87851 4.12653 5.06051 4.16553 5.42351C4.20653 5.80351 4.20753 6.29851 4.20753 7.03851H5.70753ZM2.01153 3.79951C2.67953 4.03451 3.11853 4.19051 3.44153 4.35051C3.74453 4.49851 3.87853 4.61851 3.96653 4.74751L5.20553 3.90051C4.92153 3.48451 4.54253 3.21851 4.10153 3.00151C3.68153 2.79551 3.14353 2.60751 2.50953 2.38451L2.01153 3.79951ZM4.20753 9.76051C4.20753 11.2135 4.22153 12.2605 4.35753 13.0605C4.50453 13.9145 4.79753 14.5265 5.34253 15.1025L6.43153 14.0705C6.11153 13.7325 5.93853 13.4025 5.83653 12.8075C5.72653 12.1575 5.70753 11.2495 5.70753 9.76051H4.20753ZM10.9375 14.7505C9.52053 14.7505 8.53753 14.7485 7.79653 14.6435C7.08153 14.5425 6.70453 14.3585 6.43153 14.0705L5.34253 15.1025C5.93653 15.7295 6.68953 16.0025 7.58553 16.1285C8.45553 16.2525 9.56653 16.2505 10.9375 16.2505V14.7505ZM4.95753 6.87051H17.0875V5.37051H4.95853L4.95753 6.87051ZM19.9225 9.73151L19.4225 12.1565L20.8925 12.4585L21.3915 10.0345L19.9225 9.73151ZM17.0895 6.87051C17.9455 6.87051 18.6995 6.87151 19.2945 6.93751C19.5895 6.97151 19.8115 7.01751 19.9665 7.07151C20.1275 7.12851 20.1535 7.17151 20.1405 7.15451L21.3295 6.24051C21.0945 5.93451 20.7645 5.76151 20.4635 5.65651C20.138 5.5495 19.8016 5.47907 19.4605 5.44651C18.7655 5.36951 17.9175 5.37051 17.0895 5.37051V6.87051ZM21.3925 10.0305C21.5625 9.18251 21.7065 8.47051 21.7415 7.90051C21.7785 7.31451 21.7115 6.73651 21.3295 6.24051L20.1405 7.15451C20.2025 7.23551 20.2705 7.38051 20.2445 7.80851C20.2175 8.25251 20.1005 8.84551 19.9225 9.73651L21.3925 10.0305ZM16.2395 16.2505C17.0015 16.2505 17.6415 16.2515 18.1575 16.1885C18.6925 16.1235 19.1815 15.9795 19.6075 15.6325L18.6595 14.4695C18.5345 14.5715 18.3575 14.6535 17.9745 14.6995C17.5715 14.7495 17.0395 14.7505 16.2395 14.7505V16.2505ZM19.4245 12.1565C19.2625 12.9395 19.1545 13.4595 19.0245 13.8445C18.9015 14.2105 18.7845 14.3675 18.6595 14.4695L19.6075 15.6325C20.0345 15.2845 20.2735 14.8355 20.4455 14.3235C20.6115 13.8315 20.7395 13.2055 20.8935 12.4595L19.4245 12.1565Z" fill="#027A48"/>
<path id="Vector_3" d="M13 13V11M13 11V9M13 11H15M13 11H11" stroke="#027A48" stroke-width="1.5" stroke-linecap="round"/>
</g>
</g>
</svg>
