<svg width="56" height="56" viewBox="0 0 56 56" fill="none" xmlns="http://www.w3.org/2000/svg">
<g id="shopping-bag 1" clip-path="url(#clip0_13186_56373)">
<g id="shopping bag discount">
<path id="Vector" d="M46.3985 49.9097C46.4334 50.5438 46.3385 51.1783 46.1197 51.7745C45.9009 52.3706 45.5627 52.9158 45.1258 53.3767C44.6889 53.8376 44.1626 54.2045 43.579 54.4549C42.9954 54.7053 42.3668 54.834 41.7318 54.833H14.2685C13.6334 54.834 13.0049 54.7053 12.4213 54.4549C11.8377 54.2045 11.3113 53.8376 10.8745 53.3767C10.4376 52.9158 10.0994 52.3706 9.88055 51.7745C9.66172 51.1783 9.56686 50.5438 9.60179 49.9097L11.6668 12.833H44.3335L46.3985 49.9097Z" fill="#FFCC66"/>
<path id="Vector_2" d="M45.99 52.0797C44.7067 52.6747 46.1183 52.4997 19.0633 52.4997C18.1108 52.5011 17.1679 52.3081 16.2925 51.9325C15.4172 51.5569 14.6276 51.0066 13.9723 50.3152C13.317 49.6239 12.8097 48.8061 12.4815 47.9118C12.1532 47.0176 12.0109 46.0658 12.0633 45.1147L13.8717 12.833H44.3333C46.5733 53.0013 46.6667 50.6213 45.99 52.0797Z" fill="#FFDE76"/>
<path id="Vector_3" d="M38.3013 42.5247C38.3962 42.8234 38.4276 43.1387 38.3936 43.4502C38.3596 43.7618 38.2609 44.0629 38.1039 44.3341C37.9468 44.6054 37.7349 44.8408 37.4816 45.0255C37.2283 45.2101 36.9393 45.3398 36.633 45.4063C36.2102 45.4989 35.8229 45.7108 35.5168 46.0168C35.2108 46.3229 34.9989 46.7102 34.9063 47.133C34.8398 47.4393 34.7101 47.7283 34.5255 47.9816C34.3408 48.2349 34.1054 48.4468 33.8341 48.6039C33.5629 48.7609 33.2618 48.8596 32.9502 48.8936C32.6387 48.9276 32.3234 48.8962 32.0247 48.8013C31.6161 48.6737 31.1796 48.6652 30.7663 48.7767C30.3531 48.8883 29.9802 49.1154 29.6913 49.4313C29.4793 49.6626 29.2215 49.8473 28.9343 49.9736C28.6471 50.0999 28.3368 50.1652 28.023 50.1652C27.7092 50.1652 27.3989 50.0999 27.1117 49.9736C26.8245 49.8473 26.5667 49.6626 26.3547 49.4313C26.0603 49.1233 25.6873 48.9018 25.2759 48.7907C24.8646 48.6796 24.4307 48.6833 24.0213 48.8013C23.7226 48.8962 23.4074 48.9276 23.0958 48.8936C22.7842 48.8596 22.4831 48.7609 22.2119 48.6039C21.9406 48.4468 21.7052 48.2349 21.5205 47.9816C21.3359 47.7283 21.2062 47.4393 21.1397 47.133C21.0484 46.7096 20.837 46.3215 20.5307 46.0153C20.2245 45.709 19.8364 45.4976 19.413 45.4063C18.8964 45.3032 18.4319 45.023 18.0996 44.6141C17.7674 44.2052 17.5882 43.6932 17.593 43.1663C17.593 42.5713 17.803 42.4197 17.803 41.8013C17.803 40.133 16.333 40.203 16.333 38.4997C16.333 36.7963 17.803 36.8663 17.803 35.163C17.803 34.5447 17.593 34.4047 17.593 33.798C17.5941 33.2837 17.7703 32.785 18.0926 32.3842C18.415 31.9834 18.8642 31.7044 19.3663 31.593C19.7897 31.5017 20.1778 31.2903 20.4841 30.9841C20.7903 30.6778 21.0017 30.2897 21.093 29.8663C21.2056 29.3583 21.4899 28.9046 21.8979 28.5816C22.3058 28.2586 22.8127 28.086 23.333 28.093C23.9397 28.093 24.0797 28.303 24.698 28.303C26.3663 28.303 26.2963 26.833 27.9997 26.833C29.703 26.833 29.913 28.8747 32.0247 28.198C32.3234 28.105 32.6382 28.075 32.9492 28.1098C33.2602 28.1446 33.5605 28.2436 33.8313 28.4003C34.1021 28.5571 34.3374 28.7683 34.5225 29.0207C34.7075 29.273 34.8382 29.5609 34.9063 29.8663C34.9976 30.2897 35.209 30.6778 35.5153 30.9841C35.8215 31.2903 36.2096 31.5017 36.633 31.593C37.1411 31.7056 37.5948 31.9899 37.9178 32.3979C38.2408 32.8058 38.4133 33.3127 38.4063 33.833C38.4063 34.4397 38.1963 34.5797 38.1963 35.198C38.1963 36.8663 39.6663 36.7963 39.6663 38.4997C39.6663 40.203 37.6363 40.413 38.3013 42.5247Z" fill="#DB5669"/>
<path id="Vector_4" d="M38.3019 42.5247C38.3967 42.8234 38.4281 43.1387 38.3941 43.4502C38.3601 43.7618 38.2614 44.0629 38.1044 44.3341C37.9474 44.6054 37.7354 44.8408 37.4821 45.0255C37.2289 45.2101 36.9398 45.3398 36.6335 45.4063C36.261 45.4893 35.9157 45.6656 35.6299 45.9186C35.3442 46.1717 35.1275 46.4932 35.0002 46.853C25.3169 51.1347 15.3885 41.1247 19.6469 31.4997C20.0081 31.3713 20.3306 31.1528 20.5837 30.865C20.8369 30.5771 21.0124 30.2293 21.0935 29.8547C21.2085 29.3488 21.4937 28.8977 21.9015 28.577C22.3093 28.2563 22.8148 28.0855 23.3335 28.093C23.9402 28.093 24.0802 28.303 24.6985 28.303C26.3669 28.303 26.2969 26.833 28.0002 26.833C29.7035 26.833 29.9135 28.8747 32.0252 28.198C32.324 28.105 32.6388 28.075 32.9497 28.1098C33.2607 28.1446 33.5611 28.2436 33.8318 28.4003C34.1026 28.5571 34.338 28.7683 34.523 29.0207C34.7081 29.273 34.8388 29.5609 34.9069 29.8663C34.9981 30.2897 35.2096 30.6778 35.5158 30.9841C35.8221 31.2903 36.2102 31.5017 36.6335 31.593C37.1416 31.7056 37.5953 31.9899 37.9183 32.3979C38.2413 32.8058 38.4138 33.3127 38.4069 33.833C38.4069 34.4397 38.1969 34.5797 38.1969 35.198C38.1969 36.8663 39.6669 36.7963 39.6669 38.4997C39.6669 40.203 37.6369 40.413 38.3019 42.5247Z" fill="#F26674"/>
<path id="Vector_5" d="M33.833 17.5V8.16667C33.833 6.61957 33.2184 5.13584 32.1245 4.04188C31.0305 2.94791 29.5468 2.33333 27.9997 2.33333C26.4526 2.33333 24.9688 2.94791 23.8749 4.04188C22.7809 5.13584 22.1663 6.61957 22.1663 8.16667V17.5C22.1663 17.8094 22.0434 18.1062 21.8246 18.325C21.6058 18.5438 21.3091 18.6667 20.9997 18.6667C20.6903 18.6667 20.3935 18.5438 20.1747 18.325C19.9559 18.1062 19.833 17.8094 19.833 17.5V8.16667C19.833 6.00073 20.6934 3.92351 22.225 2.39196C23.7565 0.860414 25.8337 0 27.9997 0C30.1656 0 32.2428 0.860414 33.7744 2.39196C35.3059 3.92351 36.1663 6.00073 36.1663 8.16667V17.5C36.1663 17.8094 36.0434 18.1062 35.8246 18.325C35.6058 18.5438 35.3091 18.6667 34.9997 18.6667C34.6903 18.6667 34.3935 18.5438 34.1747 18.325C33.9559 18.1062 33.833 17.8094 33.833 17.5Z" fill="#BE927C"/>
<path id="Vector_6" d="M23.3337 19.8334C23.3345 20.2532 23.2221 20.6654 23.0083 21.0267C22.7945 21.3879 22.4872 21.6848 22.1187 21.886C21.7503 22.0873 21.3344 22.1854 20.9149 22.17C20.4954 22.1546 20.0878 22.0263 19.735 21.7987C19.3823 21.5711 19.0976 21.2525 18.9107 20.8765C18.7239 20.5006 18.642 20.0812 18.6736 19.6626C18.7052 19.244 18.8492 18.8417 19.0903 18.498C19.3314 18.1544 19.6608 17.8821 20.0437 17.71C20.3986 17.5505 20.7879 17.4822 21.1759 17.5115C21.564 17.5408 21.9386 17.6667 22.2656 17.8777C22.5926 18.0888 22.8616 18.3782 23.0482 18.7198C23.2347 19.0614 23.3328 19.4442 23.3337 19.8334Z" fill="#FFBA55"/>
<path id="Vector_7" d="M23.123 20.79C22.692 20.9816 22.213 21.0381 21.7493 20.952C21.2855 20.8659 20.8587 20.6413 20.5252 20.3078C20.1917 19.9742 19.9671 19.5475 19.881 19.0837C19.7949 18.62 19.8514 18.141 20.043 17.71C20.474 17.5184 20.953 17.4619 21.4167 17.548C21.8805 17.6341 22.3073 17.8587 22.6408 18.1922C22.9743 18.5257 23.1989 18.9525 23.285 19.4163C23.3711 19.88 23.3146 20.359 23.123 20.79Z" fill="#FFCC66"/>
<path id="Vector_8" d="M35.0003 22.1667C36.289 22.1667 37.3337 21.122 37.3337 19.8333C37.3337 18.5447 36.289 17.5 35.0003 17.5C33.7117 17.5 32.667 18.5447 32.667 19.8333C32.667 21.122 33.7117 22.1667 35.0003 22.1667Z" fill="#FFBA55"/>
<path id="Vector_9" d="M23.3336 44.3336C23.1019 44.3349 22.875 44.2672 22.6819 44.1391C22.4888 44.011 22.3382 43.8283 22.2493 43.6143C22.1605 43.4003 22.1374 43.1646 22.1829 42.9374C22.2285 42.7102 22.3407 42.5017 22.5053 42.3386L31.8386 33.0052C32.0583 32.7855 32.3563 32.6621 32.6669 32.6621C32.9776 32.6621 33.2756 32.7855 33.4953 33.0052C33.715 33.2249 33.8384 33.5229 33.8384 33.8335C33.8384 34.1442 33.715 34.4422 33.4953 34.6619C23.4153 44.7302 24.0219 44.3336 23.3336 44.3336Z" fill="#FFDE76"/>
<path id="Vector_10" d="M26.8337 35.0003C26.8345 35.4201 26.7221 35.8324 26.5083 36.1937C26.2945 36.5549 25.9872 36.8518 25.6187 37.053C25.2503 37.2543 24.8344 37.3523 24.4149 37.337C23.9954 37.3216 23.5878 37.1933 23.235 36.9657C22.8823 36.7381 22.5976 36.4195 22.4107 36.0435C22.2239 35.6676 22.142 35.2482 22.1736 34.8296C22.2052 34.411 22.3492 34.0087 22.5903 33.665C22.8314 33.3214 23.1608 33.0491 23.5437 32.877C23.8986 32.7174 24.2879 32.6492 24.6759 32.6785C25.064 32.7078 25.4386 32.8337 25.7656 33.0447C26.0926 33.2558 26.3616 33.5452 26.5482 33.8868C26.7347 34.2284 26.8328 34.6112 26.8337 35.0003Z" fill="#FFCC66"/>
<path id="Vector_11" d="M26.623 35.957C26.192 36.1486 25.713 36.2051 25.2493 36.119C24.7855 36.0329 24.3587 35.8083 24.0252 35.4748C23.6917 35.1412 23.4671 34.7145 23.381 34.2507C23.2949 33.7869 23.3514 33.308 23.543 32.877C23.974 32.6854 24.453 32.6289 24.9167 32.715C25.3805 32.8011 25.8073 33.0257 26.1408 33.3592C26.4743 33.6927 26.6989 34.1195 26.785 34.5833C26.8711 35.047 26.8146 35.526 26.623 35.957Z" fill="#FFDE76"/>
<path id="Vector_12" d="M33.8337 42.0003C33.8345 42.4201 33.7221 42.8324 33.5083 43.1937C33.2945 43.5549 32.9872 43.8518 32.6187 44.053C32.2503 44.2543 31.8344 44.3523 31.4149 44.337C30.9954 44.3216 30.5878 44.1933 30.235 43.9657C29.8823 43.7381 29.5976 43.4195 29.4107 43.0435C29.2239 42.6676 29.142 42.2482 29.1736 41.8296C29.2052 41.411 29.3492 41.0087 29.5903 40.665C29.8314 40.3214 30.1608 40.0491 30.5437 39.877C30.8986 39.7174 31.2879 39.6492 31.6759 39.6785C32.064 39.7078 32.4386 39.8337 32.7656 40.0447C33.0926 40.2558 33.3616 40.5452 33.5482 40.8868C33.7347 41.2284 33.8328 41.6112 33.8337 42.0003Z" fill="#FFCC66"/>
<path id="Vector_13" d="M33.623 42.957C33.192 43.1486 32.713 43.2051 32.2493 43.119C31.7855 43.0329 31.3587 42.8083 31.0252 42.4748C30.6917 42.1412 30.4671 41.7145 30.381 41.2507C30.2949 40.7869 30.3514 40.308 30.543 39.877C30.974 39.6854 31.453 39.6289 31.9167 39.715C32.3805 39.8011 32.8073 40.0257 33.1408 40.3592C33.4743 40.6927 33.6989 41.1195 33.785 41.5833C33.8711 42.047 33.8146 42.526 33.623 42.957Z" fill="#FFDE76"/>
<path id="Vector_14" d="M37.123 20.79C36.692 20.9816 36.213 21.0381 35.7493 20.952C35.2855 20.8659 34.8587 20.6413 34.5252 20.3078C34.1917 19.9742 33.9671 19.5475 33.881 19.0837C33.7949 18.62 33.8514 18.141 34.043 17.71C34.474 17.5184 34.953 17.4619 35.4167 17.548C35.8805 17.6341 36.3073 17.8587 36.6408 18.1922C36.9743 18.5257 37.1989 18.9525 37.285 19.4163C37.3711 19.88 37.3146 20.359 37.123 20.79Z" fill="#FFCC66"/>
</g>
</g>
<defs>
<clipPath id="clip0_13186_56373">
<rect width="56" height="56" fill="white"/>
</clipPath>
</defs>
</svg>
