<svg width="24" height="24" viewBox="0 0 24 24" fill="none" xmlns="http://www.w3.org/2000/svg">
<g id="2 User">
<g id="Iconly/Light-Outline/2-User">
<g id="2-User">
<path id="Combined-Shape" fill-rule="evenodd" clip-rule="evenodd" d="M9.592 13.957C12.851 13.957 17.184 14.324 17.184 17.499C17.184 20.8435 12.1351 21.0442 9.96941 21.0562L9.1831 21.0562C6.87394 21.0443 2 20.8447 2 17.519C2 14.1707 7.04889 13.9698 9.21459 13.9578L9.47479 13.957C9.51535 13.957 9.55444 13.957 9.592 13.957ZM9.592 15.457C6.813 15.457 3.5 15.814 3.5 17.519C3.5 18.871 5.55 19.557 9.592 19.557C13.634 19.557 15.684 18.864 15.684 17.499C15.684 16.144 13.634 15.457 9.592 15.457ZM18.7067 13.4899C21.4127 13.8949 21.9797 15.1479 21.9797 16.1269C21.9797 16.8559 21.6647 17.8429 20.1617 18.4119C20.0747 18.4449 19.9847 18.4609 19.8957 18.4609C19.5927 18.4609 19.3077 18.2759 19.1947 17.9769C19.0477 17.5899 19.2427 17.1559 19.6297 17.0099C20.4797 16.6879 20.4797 16.2949 20.4797 16.1269C20.4797 15.5599 19.8087 15.1719 18.4857 14.9749C18.0757 14.9129 17.7927 14.5309 17.8537 14.1219C17.9157 13.7119 18.3047 13.4369 18.7067 13.4899ZM9.592 2C12.423 2 14.7271 4.304 14.7271 7.135C14.733 8.499 14.204 9.787 13.24 10.757C12.278 11.728 10.993 12.265 9.626 12.27H9.592C6.76 12.27 4.456 9.966 4.456 7.135C4.456 4.304 6.76 2 9.592 2ZM16.6796 3.1238C18.6446 3.4458 20.0706 5.1268 20.0706 7.1198C20.0666 9.1248 18.5696 10.8468 16.5876 11.1248C16.5526 11.1298 16.5176 11.1318 16.4826 11.1318C16.1146 11.1318 15.7936 10.8608 15.7406 10.4858C15.6836 10.0758 15.9686 9.6958 16.3786 9.6388C17.6266 9.4638 18.5686 8.3808 18.5706 7.1188C18.5706 5.8648 17.6726 4.8068 16.4376 4.6048C16.0286 4.5368 15.7516 4.1518 15.8186 3.7428C15.8856 3.3338 16.2726 3.0588 16.6796 3.1238ZM9.592 3.5C7.587 3.5 5.956 5.131 5.956 7.135C5.956 9.139 7.587 10.77 9.592 10.77H9.623C10.587 10.766 11.495 10.387 12.176 9.7C12.858 9.015 13.231 8.104 13.227 7.138C13.227 5.131 11.596 3.5 9.592 3.5Z" fill="#48484A"/>
</g>
</g>
</g>
</svg>
