<svg width="56" height="56" viewBox="0 0 56 56" fill="none" xmlns="http://www.w3.org/2000/svg">
<g id="warranty (1) 1">
<g id="warranty">
<path id="Vector" d="M49.1286 25.667C48.631 26.1167 48.2918 26.715 48.1615 27.3729C48.0312 28.0309 48.1167 28.7133 48.4053 29.3187C48.5924 29.7077 48.6956 30.1317 48.7083 30.5631C48.721 30.9946 48.6428 31.4239 48.4789 31.8232C48.315 32.2225 48.069 32.5829 47.7569 32.881C47.4447 33.1791 47.0734 33.4083 46.667 33.5537C46.0053 33.7862 45.4414 34.2352 45.0666 34.8281C44.6919 35.4209 44.5282 36.1229 44.602 36.8204C44.602 37.262 44.5082 37.6986 44.3267 38.1012C44.1452 38.5038 43.8802 38.8632 43.5492 39.1555C43.2182 39.4479 42.8289 39.6665 42.4069 39.797C41.985 39.9274 41.5402 39.9666 41.102 39.912C40.4642 39.9174 39.8439 40.1215 39.3274 40.4957C38.811 40.87 38.424 41.3959 38.2203 42.0004C38.0778 42.4119 37.8497 42.7885 37.5509 43.1054C37.2522 43.4223 36.8897 43.6722 36.4872 43.8387C36.0848 44.0052 35.6517 44.0844 35.2164 44.0712C34.7811 44.058 34.3535 43.9526 33.962 43.762C33.3623 43.4791 32.6884 43.3933 32.037 43.517C30.1353 43.832 30.2053 45.5004 28.0003 45.5004C25.7953 45.5004 25.8653 43.832 23.9636 43.4937C23.3123 43.3658 22.6371 43.4518 22.0386 43.7387C21.6485 43.9298 21.2225 44.0362 20.7883 44.0509C20.3542 44.0657 19.9219 43.9884 19.5197 43.8242C19.1176 43.6601 18.7547 43.4127 18.4549 43.0984C18.1551 42.784 17.9252 42.4098 17.7803 42.0004C17.5714 41.3965 17.1792 40.873 16.6584 40.5028C16.1376 40.1326 15.5142 39.9343 14.8753 39.9354C14.422 39.9926 13.9617 39.9494 13.527 39.8088C13.0923 39.6683 12.6939 39.4338 12.3599 39.1221C12.0259 38.8104 11.7646 38.429 11.5944 38.005C11.4243 37.5811 11.3495 37.1248 11.3753 36.6687C11.4217 35.9978 11.2473 35.3301 10.8787 34.7676C10.51 34.2052 9.96736 33.7788 9.33364 33.5537C8.92096 33.4128 8.54306 33.1855 8.22512 32.8871C7.90719 32.5887 7.65651 32.2259 7.48982 31.8229C7.32312 31.42 7.24422 30.9861 7.25839 30.5503C7.27255 30.1145 7.37946 29.6866 7.57197 29.2954C7.85965 28.6954 7.94691 28.0189 7.82087 27.3657C7.69484 26.7124 7.36218 26.1169 6.87197 25.667C6.53811 25.3768 6.27042 25.0183 6.08697 24.6158C5.90352 24.2133 5.80859 23.7761 5.80859 23.3337C5.80859 22.8913 5.90352 22.4541 6.08697 22.0516C6.27042 21.6491 6.53811 21.2906 6.87197 21.0004C7.3696 20.5507 7.7088 19.9524 7.83912 19.2945C7.96945 18.6365 7.88394 17.9541 7.5953 17.3487C7.40822 16.9597 7.30499 16.5357 7.2923 16.1043C7.27962 15.6728 7.35776 15.2435 7.52166 14.8442C7.68557 14.4449 7.93158 14.0845 8.24373 13.7864C8.55588 13.4883 8.92721 13.2591 9.33364 13.1137C9.99534 12.8812 10.5592 12.4322 10.934 11.8393C11.3087 11.2465 11.4725 10.5445 11.3986 9.84704C11.3986 9.40542 11.4924 8.96883 11.6739 8.56624C11.8554 8.16364 12.1204 7.80424 12.4514 7.51188C12.7824 7.21951 13.1717 7.00086 13.5937 6.87044C14.0156 6.74001 14.4604 6.70079 14.8986 6.75537C15.5364 6.74997 16.1567 6.54594 16.6732 6.17166C17.1896 5.79738 17.5766 5.27146 17.7803 4.66704C17.9909 4.06106 18.3848 3.53561 18.9074 3.16352C19.43 2.79143 20.0554 2.59113 20.697 2.59037C21.8636 2.59037 22.1553 3.2087 23.392 3.2087C25.7603 3.23204 25.667 1.16704 28.0003 1.16704C28.4406 1.16466 28.8764 1.25602 29.2787 1.43505C29.681 1.61407 30.0406 1.87666 30.3336 2.20537C30.7822 2.70461 31.3806 3.04495 32.039 3.17537C32.6974 3.30578 33.3803 3.21923 33.9853 2.9287C34.3743 2.74162 34.7983 2.63839 35.2297 2.6257C35.6612 2.61302 36.0905 2.69116 36.4898 2.85506C36.8891 3.01897 37.2495 3.26498 37.5476 3.57713C37.8457 3.88928 38.0749 4.26061 38.2203 4.66704C38.4528 5.32874 38.9018 5.8926 39.4947 6.26736C40.0875 6.64213 40.7895 6.80585 41.487 6.73204C41.9286 6.73196 42.3652 6.82578 42.7678 7.00729C43.1704 7.18879 43.5298 7.45382 43.8221 7.7848C44.1145 8.11578 44.3331 8.50514 44.4636 8.92706C44.594 9.34898 44.6332 9.79381 44.5786 10.232C44.584 10.8698 44.7881 11.4901 45.1623 12.0066C45.5366 12.523 46.0625 12.91 46.667 13.1137C47.2729 13.3243 47.7984 13.7182 48.1705 14.2408C48.5426 14.7634 48.7429 15.3888 48.7436 16.0304C48.7436 17.197 48.1253 17.4887 48.1253 18.7254C48.102 21.0937 50.167 21.0004 50.167 23.3337C50.1693 23.774 50.078 24.2098 49.899 24.6121C49.7199 25.0144 49.4573 25.374 49.1286 25.667Z" fill="#FFCC66"/>
<path id="Vector_2" d="M49.1291 25.667C48.6315 26.1167 48.2923 26.715 48.1619 27.3729C48.0316 28.0309 48.1171 28.7133 48.4057 29.3187C48.5928 29.7077 48.6961 30.1317 48.7088 30.5631C48.7214 30.9946 48.6433 31.4239 48.4794 31.8232C48.3155 32.2225 48.0695 32.5829 47.7573 32.881C47.4452 33.1791 47.0738 33.4083 46.6674 33.5537C46.0711 33.76 45.5528 34.1451 45.1833 34.6566C44.8138 35.1681 44.6109 35.7811 44.6024 36.412C40.7275 40.0175 35.6269 42.0152 30.3341 42.0004C11.9824 42.0004 2.57908 20.0437 14.9224 6.75537C15.5562 6.74516 16.1713 6.53891 16.6831 6.16497C17.1949 5.79102 17.5784 5.26774 17.7807 4.66704C17.9899 4.06011 18.3834 3.53369 18.9063 3.16136C19.4293 2.78903 20.0555 2.5894 20.6974 2.59037C21.8641 2.59037 22.1557 3.2087 23.3924 3.2087C25.7607 3.23204 25.6674 1.16704 28.0007 1.16704C28.4411 1.16466 28.8769 1.25602 29.2792 1.43505C29.6815 1.61407 30.0411 1.87666 30.3341 2.20537C30.7827 2.70461 31.381 3.04495 32.0394 3.17537C32.6978 3.30578 33.3807 3.21923 33.9857 2.9287C34.3747 2.74162 34.7987 2.63839 35.2302 2.6257C35.6616 2.61302 36.0909 2.69116 36.4902 2.85506C36.8895 3.01897 37.25 3.26498 37.5481 3.57713C37.8462 3.88928 38.0754 4.26061 38.2207 4.66704C38.4533 5.32874 38.9023 5.8926 39.4951 6.26736C40.088 6.64213 40.7899 6.80585 41.4874 6.73204C41.929 6.73196 42.3656 6.82578 42.7682 7.00729C43.1708 7.18879 43.5302 7.45382 43.8226 7.7848C44.1149 8.11578 44.3336 8.50514 44.464 8.92706C44.5944 9.34898 44.6337 9.79381 44.5791 10.232C44.5845 10.8698 44.7885 11.4901 45.1628 12.0066C45.5371 12.523 46.063 12.91 46.6674 13.1137C47.2734 13.3243 47.7988 13.7182 48.1709 14.2408C48.543 14.7634 48.7433 15.3888 48.7441 16.0304C48.7441 17.197 48.1257 17.4887 48.1257 18.7254C48.1024 21.0937 50.1674 21.0004 50.1674 23.3337C50.1698 23.774 50.0784 24.2098 49.8994 24.6121C49.7204 25.0144 49.4578 25.374 49.1291 25.667Z" fill="#FFDE76"/>
<path id="Vector_3" d="M43.1668 23.3338C43.1668 25.3255 42.7745 27.2977 42.0123 29.1378C41.2501 30.9779 40.1329 32.6499 38.7246 34.0583C37.3162 35.4666 35.6443 36.5838 33.8042 37.346C31.9641 38.1082 29.9918 38.5005 28.0001 38.5005C13.7318 38.5005 7.3618 20.4171 18.5151 11.5155C20.7442 9.72898 23.4325 8.60833 26.2705 8.28255C29.1085 7.95677 31.9808 8.43911 34.5567 9.67404C37.1326 10.909 39.3074 12.8463 40.8307 15.2629C42.3539 17.6795 43.1637 20.4772 43.1668 23.3338Z" fill="#FFBA55"/>
<path id="Vector_4" d="M43.1674 23.3338C43.174 26.7862 41.9916 30.1357 39.819 32.8188C36.9029 35.1236 33.2419 36.2772 29.5312 36.0607C25.8205 35.8442 22.3186 34.2725 19.6903 31.6442C17.062 29.0159 15.4903 25.514 15.2738 21.8033C15.0573 18.0926 16.2109 14.4316 18.5157 11.5155C20.7448 9.72898 23.4331 8.60833 26.2711 8.28255C29.1091 7.95677 31.9814 8.43911 34.5573 9.67404C37.1332 10.909 39.308 12.8463 40.8312 15.2629C42.3545 17.6795 43.1643 20.4772 43.1674 23.3338Z" fill="#FFCC66"/>
<path id="Vector_5" d="M23.964 43.4939L17.419 54.8339L15.0857 49.4672L9.33398 50.1672C12.064 45.4189 10.7573 47.6939 15.2373 39.9355C15.8126 40.0056 16.3564 40.2366 16.8063 40.6019C17.2562 40.9671 17.5939 41.4519 17.7807 42.0005C17.9129 42.3856 18.1202 42.7405 18.3906 43.0449C18.6609 43.3493 18.9889 43.5971 19.3556 43.774C19.7223 43.9508 20.1204 44.0532 20.527 44.0752C20.9335 44.0972 21.3403 44.0384 21.724 43.9022C22.3986 43.5048 23.1925 43.3601 23.964 43.4939Z" fill="#DB5669"/>
<path id="Vector_6" d="M21.7238 43.8789L17.4188 51.3339L15.0854 45.9672L11.4688 46.3989L15.2021 39.9355C15.7836 39.9994 16.3349 40.2275 16.7915 40.5932C17.2481 40.9589 17.5911 41.447 17.7804 42.0005C17.9151 42.3835 18.1241 42.736 18.3954 43.0379C18.6667 43.3398 18.9951 43.5851 19.3615 43.7596C19.728 43.9342 20.1253 44.0346 20.5307 44.055C20.9361 44.0755 21.3416 44.0156 21.7238 43.8789Z" fill="#F26674"/>
<path id="Vector_7" d="M46.6667 50.1673L40.8334 49.4673L38.5001 54.834L31.9551 43.494C33.3317 43.144 33.9501 44.054 35.2217 44.054C35.8743 44.0721 36.5158 43.8832 37.0544 43.5144C37.5931 43.1455 38.0011 42.6156 38.2201 42.0007C38.4104 41.4564 38.7497 40.9765 39.1993 40.6156C39.649 40.2546 40.1909 40.0271 40.7634 39.959L46.6667 50.1673Z" fill="#DB5669"/>
<path id="Vector_8" d="M33.7637 31.7567L28.0003 28.7233L22.237 31.7567L23.3337 25.3283L18.667 20.7783L25.1187 19.845L28.0003 14L30.882 19.8333L37.3337 20.7667L32.667 25.3167C33.2037 28.455 32.9587 27.0433 33.7637 31.7567Z" fill="#F16F39"/>
<path id="Vector_9" d="M32.6673 25.3283L33.099 27.8483C31.9357 28.0811 30.7357 28.0577 29.5825 27.7796C28.4292 27.5016 27.3503 26.9756 26.4209 26.2384C25.4916 25.5011 24.734 24.5702 24.2009 23.5104C23.6677 22.4506 23.3719 21.2874 23.334 20.1017L25.119 19.8333L28.0007 14L30.8823 19.8333L37.334 20.7667L32.6673 25.3283Z" fill="#F8834B"/>
<path id="Vector_10" d="M34.2773 43.8789L38.5823 51.3339L40.9157 45.9672L44.5323 46.3989L40.799 39.9355C40.2175 39.9994 39.6662 40.2275 39.2096 40.5932C38.753 40.9589 38.41 41.447 38.2207 42.0005C38.086 42.3835 37.877 42.736 37.6057 43.0379C37.3344 43.3398 37.006 43.5851 36.6396 43.7596C36.2731 43.9342 35.8757 44.0346 35.4704 44.055C35.065 44.0755 34.6595 44.0156 34.2773 43.8789Z" fill="#F26674"/>
</g>
</g>
</svg>
