<svg width="24" height="24" viewBox="0 0 24 24" fill="none" xmlns="http://www.w3.org/2000/svg">
<g id="majesticons:globe-earth-2">
<g id="Group">
<path id="Vector" d="M12 21C16.9706 21 21 16.9706 21 12C21 7.02944 16.9706 3 12 3C7.02944 3 3 7.02944 3 12C3 16.9706 7.02944 21 12 21Z" stroke="white" stroke-width="2" stroke-linecap="round" stroke-linejoin="round"/>
<path id="Vector_2" d="M13.5 6.00026H14C14.5304 6.00026 15.0391 5.78954 15.4142 5.41447C15.7893 5.0394 16 4.53069 16 4.00026C8.4 1.20026 4.5 6.50026 3.5 9.50026L7.667 14.5933C7.882 14.8563 8 15.1863 8 15.5263C8 16.3403 8.673 17.0003 9.487 17.0003C10.315 17.0003 11 17.6723 11 18.5003V21.0003C13.167 20.8333 17.8 19.8003 19 17.0003H18C17.4696 17.0003 16.9609 16.7895 16.5858 16.4145C16.2107 16.0394 16 15.5307 16 15.0003C16 14.4698 15.7893 13.9611 15.4142 13.586C15.0391 13.211 14.5304 13.0003 14 13.0003H12C11.4696 13.0003 10.9609 12.7895 10.5858 12.4145C10.2107 12.0394 10 11.5307 10 11.0003V10.0003C10 9.73504 10.1054 9.48069 10.2929 9.29315C10.4804 9.10561 10.7348 9.00026 11 9.00026C11.2652 9.00026 11.5196 8.8949 11.7071 8.70736C11.8946 8.51983 12 8.26547 12 8.00026V7.50026C12 7.10243 12.158 6.7209 12.4393 6.4396C12.7206 6.15829 13.1022 6.00026 13.5 6.00026Z" fill="white" stroke="white" stroke-width="2" stroke-linecap="round" stroke-linejoin="round"/>
</g>
</g>
</svg>
