<svg width="24" height="24" viewBox="0 0 24 24" fill="none" xmlns="http://www.w3.org/2000/svg">
<g id="Frame 8378">
<g id="Zalo">
<path d="M1.52237 15.8864V15.025L5.4375 9.40962H1.5V8.25H7.1527V9.11133L3.2413 14.7267H7.17507V15.8864H1.52237Z" fill="white"/>
<path d="M10.1021 16.002C9.73917 16.002 9.41229 15.9373 9.12145 15.8081C8.8331 15.6763 8.6044 15.4824 8.43537 15.2264C8.26882 14.9703 8.18555 14.6547 8.18555 14.2793C8.18555 13.9561 8.24521 13.6889 8.36452 13.4776C8.48384 13.2663 8.64666 13.0973 8.85298 12.9705C9.0593 12.8438 9.29173 12.748 9.55025 12.6834C9.81126 12.6163 10.081 12.5678 10.3594 12.538C10.695 12.5032 10.9672 12.4721 11.176 12.4448C11.3848 12.415 11.5364 12.3702 11.6309 12.3105C11.7278 12.2484 11.7763 12.1527 11.7763 12.0234V12.0011C11.7763 11.7202 11.693 11.5027 11.5265 11.3485C11.3599 11.1944 11.12 11.1174 10.8068 11.1174C10.4762 11.1174 10.214 11.1895 10.0201 11.3336C9.82866 11.4778 9.6994 11.6481 9.63228 11.8445L8.37198 11.6655C8.47141 11.3175 8.63548 11.0266 8.86417 10.793C9.09286 10.5568 9.37251 10.3803 9.70312 10.2635C10.0337 10.1442 10.3991 10.0845 10.7994 10.0845C11.0753 10.0845 11.35 10.1168 11.6234 10.1815C11.8968 10.2461 12.1467 10.353 12.3729 10.5021C12.5991 10.6488 12.7805 10.8489 12.9173 11.1025C13.0565 11.356 13.1261 11.6729 13.1261 12.0533V15.8864H11.8285V15.0996H11.7837C11.7017 15.2587 11.5861 15.4078 11.437 15.5471C11.2903 15.6838 11.1051 15.7944 10.8814 15.8789C10.6602 15.9609 10.4004 16.002 10.1021 16.002ZM10.4526 15.0101C10.7235 15.0101 10.9585 14.9567 11.1573 14.8498C11.3562 14.7404 11.5091 14.5962 11.6159 14.4173C11.7253 14.2383 11.78 14.0431 11.78 13.8319V13.157C11.7377 13.1918 11.6657 13.2241 11.5637 13.2539C11.4643 13.2837 11.3525 13.3098 11.2282 13.3322C11.1039 13.3546 10.9808 13.3745 10.859 13.3919C10.7372 13.4093 10.6316 13.4242 10.5421 13.4366C10.3407 13.464 10.1605 13.5087 10.0014 13.5708C9.84233 13.633 9.7168 13.72 9.62482 13.8319C9.53285 13.9412 9.48686 14.0829 9.48686 14.2569C9.48686 14.5055 9.57759 14.6932 9.75906 14.82C9.94052 14.9467 10.1717 15.0101 10.4526 15.0101Z" fill="white"/>
<path d="M15.8331 8.25V15.8864H14.4833V8.25H15.8331Z" fill="white"/>
<path d="M19.7193 15.9982C19.16 15.9982 18.6753 15.8752 18.2651 15.6291C17.855 15.383 17.5368 15.0387 17.3106 14.5962C17.0869 14.1538 16.975 13.6367 16.975 13.0451C16.975 12.4535 17.0869 11.9352 17.3106 11.4902C17.5368 11.0453 17.855 10.6998 18.2651 10.4537C18.6753 10.2076 19.16 10.0845 19.7193 10.0845C20.2786 10.0845 20.7634 10.2076 21.1735 10.4537C21.5837 10.6998 21.9006 11.0453 22.1243 11.4902C22.3505 11.9352 22.4636 12.4535 22.4636 13.0451C22.4636 13.6367 22.3505 14.1538 22.1243 14.5962C21.9006 15.0387 21.5837 15.383 21.1735 15.6291C20.7634 15.8752 20.2786 15.9982 19.7193 15.9982ZM19.7268 14.9169C20.0301 14.9169 20.2836 14.8336 20.4874 14.6671C20.6913 14.498 20.8429 14.2718 20.9423 13.9885C21.0443 13.7051 21.0952 13.3894 21.0952 13.0414C21.0952 12.6909 21.0443 12.3739 20.9423 12.0906C20.8429 11.8047 20.6913 11.5772 20.4874 11.4082C20.2836 11.2392 20.0301 11.1547 19.7268 11.1547C19.4161 11.1547 19.1575 11.2392 18.9512 11.4082C18.7474 11.5772 18.5945 11.8047 18.4926 12.0906C18.3932 12.3739 18.3434 12.6909 18.3434 13.0414C18.3434 13.3894 18.3932 13.7051 18.4926 13.9885C18.5945 14.2718 18.7474 14.498 18.9512 14.6671C19.1575 14.8336 19.4161 14.9169 19.7268 14.9169Z" fill="white"/>
</g>
</g>
</svg>
